<svg width="213" height="91" viewBox="0 0 213 91" fill="none" xmlns="http://www.w3.org/2000/svg">
<path d="M1.36577 66.7333C1.00157 66.7333 0.673782 66.6059 0.382417 66.3511C0.127472 66.0599 0 65.7323 0 65.3683V29.8783C0 29.4779 0.127472 29.1503 0.382417 28.8955C0.673782 28.6407 1.00157 28.5133 1.36577 28.5133H15.5698C20.9237 28.5133 25.0756 29.7873 28.0257 32.3353C30.9758 34.8833 32.5236 38.5779 32.6693 43.4191C32.7057 44.4747 32.7239 45.8761 32.7239 47.6233C32.7239 49.3705 32.7057 50.7537 32.6693 51.7729C32.4872 56.8325 30.9758 60.5999 28.1349 63.0751C25.3306 65.5139 21.2332 66.7333 15.843 66.7333H1.36577ZM15.5698 58.8709C17.9736 58.8709 19.74 58.3067 20.869 57.1783C21.9981 56.0135 22.599 54.1753 22.6718 51.6637C22.7447 50.6081 22.7811 49.2431 22.7811 47.5687C22.7811 45.8943 22.7447 44.5475 22.6718 43.5283C22.599 41.0895 21.9434 39.2877 20.7051 38.1229C19.5032 36.9581 17.7004 36.3757 15.2967 36.3757H9.83357V58.8709H15.5698Z" fill="black"/>
<path d="M90.135 67.2793C86.675 67.2793 83.7068 66.7697 81.2302 65.7505C78.7535 64.7313 76.8779 63.4027 75.6032 61.7647C74.3649 60.0903 73.7093 58.2703 73.6364 56.3047C73.6364 56.0135 73.7457 55.7587 73.9642 55.5403C74.2192 55.2855 74.5105 55.1581 74.8383 55.1581H81.7218C82.1589 55.1581 82.5049 55.2491 82.7598 55.4311C83.0512 55.5767 83.3425 55.8133 83.6339 56.1409C84.1074 57.0873 84.8722 57.8699 85.9284 58.4887C86.9846 59.1075 88.3868 59.4169 90.135 59.4169C92.211 59.4169 93.7953 59.0893 94.8879 58.4341C95.9805 57.7789 96.5268 56.8871 96.5268 55.7587C96.5268 54.9579 96.2355 54.3027 95.6527 53.7931C95.1064 53.2835 94.2323 52.8285 93.0304 52.4281C91.8286 52.0277 90.0439 51.5727 87.6766 51.0631C83.3061 50.1531 80.0283 48.8245 77.843 47.0773C75.6942 45.2937 74.6198 42.7639 74.6198 39.4879C74.6198 37.2675 75.239 35.2837 76.4773 33.5365C77.7156 31.7893 79.482 30.4243 81.7765 29.4415C84.071 28.4587 86.7479 27.9673 89.8072 27.9673C92.9758 27.9673 95.7256 28.5133 98.0565 29.6053C100.387 30.6973 102.154 32.0805 103.356 33.7549C104.594 35.3929 105.25 37.0127 105.322 38.6143C105.322 38.9419 105.213 39.2149 104.995 39.4333C104.776 39.6517 104.503 39.7609 104.175 39.7609H96.9639C96.5268 39.7609 96.1626 39.6881 95.8713 39.5425C95.6163 39.3969 95.3796 39.1603 95.161 38.8327C94.9425 37.9955 94.3416 37.2857 93.3582 36.7033C92.4113 36.1209 91.2276 35.8297 89.8072 35.8297C88.1683 35.8297 86.9118 36.1209 86.0377 36.7033C85.1636 37.2857 84.7265 38.1411 84.7265 39.2695C84.7265 40.0339 84.9633 40.6709 85.4367 41.1805C85.9466 41.6901 86.7479 42.1633 87.8405 42.6001C88.9695 43.0005 90.572 43.4191 92.648 43.8559C96.0351 44.4747 98.7303 45.2573 100.733 46.2037C102.773 47.1137 104.266 48.3149 105.213 49.8073C106.16 51.2633 106.634 53.1015 106.634 55.3219C106.634 57.7607 105.923 59.8901 104.503 61.7101C103.119 63.4937 101.17 64.8769 98.6574 65.8597C96.1808 66.8061 93.34 67.2793 90.135 67.2793Z" fill="black"/>
<path d="M121.507 66.7333C121.143 66.7333 120.815 66.6059 120.523 66.3511C120.269 66.0599 120.141 65.7323 120.141 65.3683V37.0855H110.417C110.053 37.0855 109.725 36.9581 109.433 36.7033C109.178 36.4121 109.051 36.0845 109.051 35.7205V29.8783C109.051 29.4779 109.178 29.1503 109.433 28.8955C109.725 28.6407 110.053 28.5133 110.417 28.5133H139.808C140.209 28.5133 140.537 28.6407 140.792 28.8955C141.046 29.1503 141.174 29.4779 141.174 29.8783V35.7205C141.174 36.1209 141.046 36.4485 140.792 36.7033C140.537 36.9581 140.209 37.0855 139.808 37.0855H130.084V65.3683C130.084 65.7323 129.956 66.0599 129.701 66.3511C129.447 66.6059 129.119 66.7333 128.718 66.7333H121.507Z" fill="black"/>
<path d="M186.504 66.7333C186.14 66.7333 185.812 66.6059 185.521 66.3511C185.266 66.0599 185.138 65.7323 185.138 65.3683V29.8783C185.138 29.4779 185.266 29.1503 185.521 28.8955C185.812 28.6407 186.14 28.5133 186.504 28.5133H211.634C212.035 28.5133 212.363 28.6407 212.618 28.8955C212.873 29.1503 213 29.4779 213 29.8783V35.3929C213 35.7569 212.873 36.0845 212.618 36.3757C212.363 36.6305 212.035 36.7579 211.634 36.7579H194.753V44.7841H210.542C210.942 44.7841 211.27 44.9297 211.525 45.2209C211.78 45.4757 211.907 45.8033 211.907 46.2037V51.6637C211.907 52.0277 211.78 52.3553 211.525 52.6465C211.27 52.9013 210.942 53.0287 210.542 53.0287H194.753V65.3683C194.753 65.7687 194.626 66.0963 194.371 66.3511C194.116 66.6059 193.788 66.7333 193.387 66.7333H186.504Z" fill="black"/>
<path d="M50.8068 3.03334C50.8068 1.35807 52.1656 0 53.8418 0C55.518 0 56.8769 1.35807 56.8769 3.03333V87.9667C56.8769 89.6419 55.518 91 53.8418 91C52.1656 91 50.8068 89.6419 50.8068 87.9667V3.03334Z" fill="black"/>
<path d="M160.069 3.03334C160.069 1.35807 161.428 0 163.104 0C164.78 0 166.139 1.35807 166.139 3.03333V87.9667C166.139 89.6419 164.78 91 163.104 91C161.428 91 160.069 89.6419 160.069 87.9667V3.03334Z" fill="black"/>
</svg>
