<svg width="328" height="122" viewBox="0 0 328 122" fill="none" xmlns="http://www.w3.org/2000/svg">
<path d="M58.9738 66.7333C58.6096 66.7333 58.2818 66.6059 57.9904 66.3511C57.7355 66.0599 57.608 65.7323 57.608 65.3683V29.8783C57.608 29.4779 57.7355 29.1503 57.9904 28.8955C58.2818 28.6407 58.6096 28.5133 58.9738 28.5133H73.1778C78.5317 28.5133 82.6836 29.7873 85.6337 32.3353C88.5837 34.8833 90.1316 38.5779 90.2773 43.4191C90.3137 44.4747 90.3319 45.8761 90.3319 47.6233C90.3319 49.3705 90.3137 50.7537 90.2773 51.7729C90.0952 56.8325 88.5838 60.5999 85.7429 63.0751C82.9386 65.5139 78.8412 66.7333 73.451 66.7333H58.9738ZM73.1778 58.8709C75.5816 58.8709 77.348 58.3067 78.477 57.1783C79.6061 56.0135 80.207 54.1753 80.2798 51.6637C80.3527 50.6081 80.3891 49.2431 80.3891 47.5687C80.3891 45.8943 80.3527 44.5475 80.2798 43.5283C80.207 41.0895 79.5514 39.2877 78.3131 38.1229C77.1113 36.9581 75.3084 36.3757 72.9047 36.3757H67.4416V58.8709H73.1778Z" fill="black"/>
<path d="M147.743 67.2793C144.283 67.2793 141.315 66.7697 138.838 65.7505C136.362 64.7313 134.486 63.4027 133.211 61.7647C131.973 60.0903 131.317 58.2703 131.244 56.3047C131.244 56.0135 131.354 55.7587 131.572 55.5403C131.827 55.2855 132.119 55.1581 132.446 55.1581H139.33C139.767 55.1581 140.113 55.2491 140.368 55.4311C140.659 55.5767 140.951 55.8133 141.242 56.1409C141.715 57.0873 142.48 57.8699 143.536 58.4887C144.593 59.1075 145.995 59.4169 147.743 59.4169C149.819 59.4169 151.403 59.0893 152.496 58.4341C153.589 57.7789 154.135 56.8871 154.135 55.7587C154.135 54.9579 153.843 54.3027 153.261 53.7931C152.714 53.2835 151.84 52.8285 150.638 52.4281C149.437 52.0277 147.652 51.5727 145.285 51.0631C140.914 50.1531 137.636 48.8245 135.451 47.0773C133.302 45.2937 132.228 42.7639 132.228 39.4879C132.228 37.2675 132.847 35.2837 134.085 33.5365C135.324 31.7893 137.09 30.4243 139.384 29.4415C141.679 28.4587 144.356 27.9673 147.415 27.9673C150.584 27.9673 153.334 28.5133 155.664 29.6053C157.995 30.6973 159.762 32.0805 160.964 33.7549C162.202 35.3929 162.858 37.0127 162.93 38.6143C162.93 38.9419 162.821 39.2149 162.603 39.4333C162.384 39.6517 162.111 39.7609 161.783 39.7609H154.572C154.135 39.7609 153.771 39.6881 153.479 39.5425C153.224 39.3969 152.988 39.1603 152.769 38.8327C152.551 37.9955 151.95 37.2857 150.966 36.7033C150.019 36.1209 148.836 35.8297 147.415 35.8297C145.776 35.8297 144.52 36.1209 143.646 36.7033C142.772 37.2857 142.335 38.1411 142.335 39.2695C142.335 40.0339 142.571 40.6709 143.045 41.1805C143.555 41.6901 144.356 42.1633 145.449 42.6001C146.578 43.0005 148.18 43.4191 150.256 43.8559C153.643 44.4747 156.338 45.2573 158.341 46.2037C160.381 47.1137 161.874 48.3149 162.821 49.8073C163.768 51.2633 164.242 53.1015 164.242 55.3219C164.242 57.7607 163.531 59.8901 162.111 61.7101C160.727 63.4937 158.778 64.8769 156.265 65.8597C153.789 66.8061 150.948 67.2793 147.743 67.2793Z" fill="black"/>
<path d="M179.115 66.7333C178.751 66.7333 178.423 66.6059 178.131 66.3511C177.877 66.0599 177.749 65.7323 177.749 65.3683V37.0855H168.025C167.661 37.0855 167.333 36.9581 167.041 36.7033C166.786 36.4121 166.659 36.0845 166.659 35.7205V29.8783C166.659 29.4779 166.786 29.1503 167.041 28.8955C167.333 28.6407 167.661 28.5133 168.025 28.5133H197.416C197.817 28.5133 198.145 28.6407 198.4 28.8955C198.654 29.1503 198.782 29.4779 198.782 29.8783V35.7205C198.782 36.1209 198.654 36.4485 198.4 36.7033C198.145 36.9581 197.817 37.0855 197.416 37.0855H187.692V65.3683C187.692 65.7323 187.564 66.0599 187.309 66.3511C187.055 66.6059 186.727 66.7333 186.326 66.7333H179.115Z" fill="black"/>
<path d="M244.112 66.7333C243.748 66.7333 243.42 66.6059 243.129 66.3511C242.874 66.0599 242.746 65.7323 242.746 65.3683V29.8783C242.746 29.4779 242.874 29.1503 243.129 28.8955C243.42 28.6407 243.748 28.5133 244.112 28.5133H269.242C269.643 28.5133 269.971 28.6407 270.226 28.8955C270.481 29.1503 270.608 29.4779 270.608 29.8783V35.3929C270.608 35.7569 270.481 36.0845 270.226 36.3757C269.971 36.6305 269.643 36.7579 269.242 36.7579H252.361V44.7841H268.15C268.55 44.7841 268.878 44.9297 269.133 45.2209C269.388 45.4757 269.515 45.8033 269.515 46.2037V51.6637C269.515 52.0277 269.388 52.3553 269.133 52.6465C268.878 52.9013 268.55 53.0287 268.15 53.0287H252.361V65.3683C252.361 65.7687 252.234 66.0963 251.979 66.3511C251.724 66.6059 251.396 66.7333 250.995 66.7333H244.112Z" fill="black"/>
<path d="M108.415 3.03334C108.415 1.35807 109.774 0 111.45 0C113.126 0 114.485 1.35807 114.485 3.03333V87.9667C114.485 89.6419 113.126 91 111.45 91C109.774 91 108.415 89.6419 108.415 87.9667V3.03334Z" fill="black"/>
<path d="M217.677 3.03334C217.677 1.35807 219.036 0 220.712 0C222.388 0 223.747 1.35807 223.747 3.03333V87.9667C223.747 89.6419 222.388 91 220.712 91C219.036 91 217.677 89.6419 217.677 87.9667V3.03334Z" fill="black"/>
<path d="M0.368 118C0.261333 118 0.170667 117.968 0.096 117.904C0.032 117.829 0 117.739 0 117.632V107.184C0 107.067 0.032 106.976 0.096 106.912C0.170667 106.837 0.261333 106.8 0.368 106.8H4C5.61067 106.8 6.77333 107.163 7.488 107.888C8.20267 108.603 8.576 109.685 8.608 111.136C8.61867 111.445 8.624 111.861 8.624 112.384C8.624 112.907 8.61867 113.328 8.608 113.648C8.576 114.661 8.40533 115.488 8.096 116.128C7.79733 116.757 7.32267 117.227 6.672 117.536C6.02133 117.845 5.15733 118 4.08 118H0.368ZM4 116.64C4.736 116.64 5.31733 116.539 5.744 116.336C6.18133 116.133 6.496 115.813 6.688 115.376C6.89067 114.928 7.00267 114.331 7.024 113.584C7.04533 112.944 7.056 112.544 7.056 112.384C7.056 112.213 7.04533 111.819 7.024 111.2C7.00267 110.144 6.752 109.376 6.272 108.896C5.792 108.405 5.008 108.16 3.92 108.16H1.568V116.64H4Z" fill="black"/>
<path d="M14.1512 118.16C13.0526 118.16 12.1726 117.824 11.5112 117.152C10.8606 116.469 10.5033 115.541 10.4392 114.368L10.4233 113.824L10.4392 113.296C10.5139 112.144 10.8766 111.227 11.5273 110.544C12.1886 109.861 13.0579 109.52 14.1353 109.52C15.3193 109.52 16.2366 109.899 16.8873 110.656C17.5379 111.403 17.8633 112.416 17.8633 113.696V113.968C17.8633 114.075 17.8259 114.165 17.7513 114.24C17.6873 114.304 17.6019 114.336 17.4953 114.336H11.9593V114.48C11.9913 115.173 12.1992 115.765 12.5833 116.256C12.9779 116.736 13.4953 116.976 14.1353 116.976C14.6259 116.976 15.0259 116.88 15.3352 116.688C15.6552 116.485 15.8899 116.277 16.0392 116.064C16.1352 115.936 16.2046 115.861 16.2472 115.84C16.3006 115.808 16.3913 115.792 16.5193 115.792H17.3033C17.3993 115.792 17.4793 115.819 17.5433 115.872C17.6073 115.925 17.6392 116 17.6392 116.096C17.6392 116.331 17.4899 116.613 17.1912 116.944C16.9032 117.275 16.4926 117.563 15.9593 117.808C15.4366 118.043 14.8339 118.16 14.1512 118.16ZM16.3433 113.232V113.184C16.3433 112.448 16.1406 111.851 15.7353 111.392C15.3406 110.923 14.8073 110.688 14.1353 110.688C13.4632 110.688 12.9299 110.923 12.5352 111.392C12.1512 111.851 11.9593 112.448 11.9593 113.184V113.232H16.3433Z" fill="black"/>
<path d="M22.9775 118C21.2922 118 20.4495 117.061 20.4495 115.184V110.96H19.2015C19.0948 110.96 19.0042 110.928 18.9295 110.864C18.8655 110.789 18.8335 110.699 18.8335 110.592V110.048C18.8335 109.941 18.8655 109.856 18.9295 109.792C19.0042 109.717 19.0948 109.68 19.2015 109.68H20.4495V107.008C20.4495 106.901 20.4815 106.816 20.5455 106.752C20.6202 106.677 20.7108 106.64 20.8175 106.64H21.5695C21.6762 106.64 21.7615 106.677 21.8255 106.752C21.9002 106.816 21.9375 106.901 21.9375 107.008V109.68H23.9215C24.0282 109.68 24.1135 109.717 24.1775 109.792C24.2522 109.856 24.2895 109.941 24.2895 110.048V110.592C24.2895 110.699 24.2522 110.789 24.1775 110.864C24.1135 110.928 24.0282 110.96 23.9215 110.96H21.9375V115.072C21.9375 115.605 22.0282 116.011 22.2095 116.288C22.3908 116.555 22.6895 116.688 23.1055 116.688H24.0815C24.1882 116.688 24.2735 116.725 24.3375 116.8C24.4122 116.864 24.4495 116.949 24.4495 117.056V117.632C24.4495 117.739 24.4122 117.829 24.3375 117.904C24.2735 117.968 24.1882 118 24.0815 118H22.9775Z" fill="black"/>
<path d="M29.3075 118.16C28.2088 118.16 27.3288 117.824 26.6675 117.152C26.0168 116.469 25.6595 115.541 25.5955 114.368L25.5795 113.824L25.5955 113.296C25.6702 112.144 26.0328 111.227 26.6835 110.544C27.3448 109.861 28.2142 109.52 29.2915 109.52C30.4755 109.52 31.3928 109.899 32.0435 110.656C32.6942 111.403 33.0195 112.416 33.0195 113.696V113.968C33.0195 114.075 32.9822 114.165 32.9075 114.24C32.8435 114.304 32.7582 114.336 32.6515 114.336H27.1155V114.48C27.1475 115.173 27.3555 115.765 27.7395 116.256C28.1342 116.736 28.6515 116.976 29.2915 116.976C29.7822 116.976 30.1822 116.88 30.4915 116.688C30.8115 116.485 31.0462 116.277 31.1955 116.064C31.2915 115.936 31.3608 115.861 31.4035 115.84C31.4568 115.808 31.5475 115.792 31.6755 115.792H32.4595C32.5555 115.792 32.6355 115.819 32.6995 115.872C32.7635 115.925 32.7955 116 32.7955 116.096C32.7955 116.331 32.6462 116.613 32.3475 116.944C32.0595 117.275 31.6488 117.563 31.1155 117.808C30.5928 118.043 29.9902 118.16 29.3075 118.16ZM31.4995 113.232V113.184C31.4995 112.448 31.2968 111.851 30.8915 111.392C30.4968 110.923 29.9635 110.688 29.2915 110.688C28.6195 110.688 28.0862 110.923 27.6915 111.392C27.3075 111.851 27.1155 112.448 27.1155 113.184V113.232H31.4995Z" fill="black"/>
<path d="M35.3006 118C35.194 118 35.1033 117.968 35.0286 117.904C34.9646 117.829 34.9326 117.739 34.9326 117.632V110.064C34.9326 109.957 34.9646 109.867 35.0286 109.792C35.1033 109.717 35.194 109.68 35.3006 109.68H36.0366C36.1433 109.68 36.234 109.717 36.3086 109.792C36.3833 109.867 36.4206 109.957 36.4206 110.064V110.768C36.858 110.043 37.6046 109.68 38.6606 109.68H39.2846C39.3913 109.68 39.4766 109.717 39.5406 109.792C39.6153 109.856 39.6526 109.941 39.6526 110.048V110.704C39.6526 110.811 39.6153 110.896 39.5406 110.96C39.4766 111.024 39.3913 111.056 39.2846 111.056H38.3246C37.7486 111.056 37.2953 111.227 36.9646 111.568C36.634 111.899 36.4686 112.352 36.4686 112.928V117.632C36.4686 117.739 36.4313 117.829 36.3566 117.904C36.282 117.968 36.1913 118 36.0846 118H35.3006Z" fill="black"/>
<path d="M41.3787 118C41.2721 118 41.1814 117.968 41.1068 117.904C41.0428 117.829 41.0107 117.739 41.0107 117.632V110.048C41.0107 109.941 41.0428 109.856 41.1068 109.792C41.1814 109.717 41.2721 109.68 41.3787 109.68H42.0988C42.2054 109.68 42.2908 109.717 42.3548 109.792C42.4294 109.856 42.4668 109.941 42.4668 110.048V110.608C43.0214 109.883 43.7948 109.52 44.7868 109.52C45.9708 109.52 46.8081 110.011 47.2988 110.992C47.5548 110.544 47.9174 110.187 48.3867 109.92C48.8561 109.653 49.3841 109.52 49.9707 109.52C50.8454 109.52 51.5601 109.819 52.1147 110.416C52.6694 111.013 52.9468 111.877 52.9468 113.008V117.632C52.9468 117.739 52.9094 117.829 52.8348 117.904C52.7708 117.968 52.6854 118 52.5788 118H51.8268C51.7201 118 51.6294 117.968 51.5548 117.904C51.4908 117.829 51.4588 117.739 51.4588 117.632V113.152C51.4588 112.32 51.2828 111.723 50.9308 111.36C50.5894 110.997 50.1361 110.816 49.5708 110.816C49.0694 110.816 48.6374 111.003 48.2747 111.376C47.9121 111.739 47.7308 112.331 47.7308 113.152V117.632C47.7308 117.739 47.6934 117.829 47.6188 117.904C47.5548 117.968 47.4694 118 47.3628 118H46.6108C46.5041 118 46.4134 117.968 46.3387 117.904C46.2747 117.829 46.2428 117.739 46.2428 117.632V113.152C46.2428 112.32 46.0614 111.723 45.6987 111.36C45.3467 110.997 44.8988 110.816 44.3548 110.816C43.8534 110.816 43.4214 111.003 43.0588 111.376C42.6961 111.739 42.5148 112.325 42.5148 113.136V117.632C42.5148 117.739 42.4774 117.829 42.4028 117.904C42.3388 117.968 42.2534 118 42.1468 118H41.3787Z" fill="black"/>
<path d="M55.4695 108.128C55.3628 108.128 55.2722 108.096 55.1975 108.032C55.1335 107.957 55.1015 107.867 55.1015 107.76V106.896C55.1015 106.789 55.1335 106.699 55.1975 106.624C55.2722 106.549 55.3628 106.512 55.4695 106.512H56.4775C56.5842 106.512 56.6748 106.549 56.7495 106.624C56.8242 106.699 56.8615 106.789 56.8615 106.896V107.76C56.8615 107.867 56.8242 107.957 56.7495 108.032C56.6748 108.096 56.5842 108.128 56.4775 108.128H55.4695ZM55.5975 118C55.4908 118 55.4002 117.968 55.3255 117.904C55.2615 117.829 55.2295 117.739 55.2295 117.632V110.048C55.2295 109.941 55.2615 109.856 55.3255 109.792C55.4002 109.717 55.4908 109.68 55.5975 109.68H56.3655C56.4722 109.68 56.5575 109.717 56.6215 109.792C56.6962 109.856 56.7335 109.941 56.7335 110.048V117.632C56.7335 117.739 56.6962 117.829 56.6215 117.904C56.5575 117.968 56.4722 118 56.3655 118H55.5975Z" fill="black"/>
<path d="M59.4725 118C59.3658 118 59.2752 117.968 59.2005 117.904C59.1365 117.829 59.1045 117.739 59.1045 117.632V110.048C59.1045 109.941 59.1365 109.856 59.2005 109.792C59.2752 109.717 59.3658 109.68 59.4725 109.68H60.2245C60.3312 109.68 60.4165 109.717 60.4805 109.792C60.5552 109.856 60.5925 109.941 60.5925 110.048V110.752C60.9018 110.357 61.2645 110.053 61.6805 109.84C62.1072 109.627 62.6352 109.52 63.2645 109.52C64.2885 109.52 65.0832 109.851 65.6485 110.512C66.2245 111.163 66.5125 112.032 66.5125 113.12V117.632C66.5125 117.739 66.4752 117.829 66.4005 117.904C66.3365 117.968 66.2512 118 66.1445 118H65.3445C65.2378 118 65.1472 117.968 65.0725 117.904C65.0085 117.829 64.9765 117.739 64.9765 117.632V113.2C64.9765 112.443 64.7898 111.856 64.4165 111.44C64.0538 111.024 63.5258 110.816 62.8325 110.816C62.1605 110.816 61.6272 111.029 61.2325 111.456C60.8378 111.872 60.6405 112.453 60.6405 113.2V117.632C60.6405 117.739 60.6032 117.829 60.5285 117.904C60.4645 117.968 60.3792 118 60.2725 118H59.4725Z" fill="black"/>
<path d="M69.0476 108.128C68.941 108.128 68.8503 108.096 68.7756 108.032C68.7116 107.957 68.6796 107.867 68.6796 107.76V106.896C68.6796 106.789 68.7116 106.699 68.7756 106.624C68.8503 106.549 68.941 106.512 69.0476 106.512H70.0556C70.1623 106.512 70.253 106.549 70.3276 106.624C70.4023 106.699 70.4396 106.789 70.4396 106.896V107.76C70.4396 107.867 70.4023 107.957 70.3276 108.032C70.253 108.096 70.1623 108.128 70.0556 108.128H69.0476ZM69.1756 118C69.069 118 68.9783 117.968 68.9036 117.904C68.8396 117.829 68.8076 117.739 68.8076 117.632V110.048C68.8076 109.941 68.8396 109.856 68.9036 109.792C68.9783 109.717 69.069 109.68 69.1756 109.68H69.9436C70.0503 109.68 70.1356 109.717 70.1996 109.792C70.2743 109.856 70.3116 109.941 70.3116 110.048V117.632C70.3116 117.739 70.2743 117.829 70.1996 117.904C70.1356 117.968 70.0503 118 69.9436 118H69.1756Z" fill="black"/>
<path d="M75.5626 118.16C74.816 118.16 74.1866 118.043 73.6746 117.808C73.1733 117.563 72.7946 117.285 72.5386 116.976C72.2933 116.667 72.1706 116.411 72.1706 116.208C72.1706 116.101 72.208 116.021 72.2826 115.968C72.368 115.904 72.4533 115.872 72.5386 115.872H73.2586C73.3653 115.872 73.4613 115.925 73.5466 116.032C73.8026 116.331 74.08 116.565 74.3786 116.736C74.6773 116.907 75.0773 116.992 75.5786 116.992C76.1333 116.992 76.5813 116.885 76.9226 116.672C77.2746 116.448 77.4506 116.144 77.4506 115.76C77.4506 115.504 77.376 115.296 77.2266 115.136C77.088 114.965 76.8426 114.821 76.4906 114.704C76.1493 114.576 75.6373 114.437 74.9546 114.288C74.0266 114.085 73.3653 113.792 72.9706 113.408C72.5866 113.024 72.3946 112.528 72.3946 111.92C72.3946 111.515 72.512 111.131 72.7466 110.768C72.992 110.395 73.344 110.096 73.8026 109.872C74.272 109.637 74.832 109.52 75.4826 109.52C76.1653 109.52 76.7466 109.632 77.2266 109.856C77.7066 110.08 78.064 110.347 78.2986 110.656C78.544 110.955 78.6666 111.205 78.6666 111.408C78.6666 111.504 78.6293 111.584 78.5546 111.648C78.4906 111.712 78.4106 111.744 78.3146 111.744H77.6426C77.5146 111.744 77.408 111.691 77.3226 111.584C77.152 111.381 77.0026 111.227 76.8746 111.12C76.7573 111.003 76.5813 110.901 76.3466 110.816C76.1226 110.731 75.8346 110.688 75.4826 110.688C74.9706 110.688 74.576 110.8 74.2986 111.024C74.0213 111.237 73.8826 111.52 73.8826 111.872C73.8826 112.096 73.9413 112.288 74.0586 112.448C74.176 112.597 74.4 112.736 74.7306 112.864C75.072 112.992 75.5626 113.125 76.2026 113.264C77.216 113.477 77.9306 113.787 78.3466 114.192C78.7733 114.587 78.9866 115.093 78.9866 115.712C78.9866 116.171 78.8533 116.587 78.5866 116.96C78.32 117.333 77.9253 117.627 77.4026 117.84C76.8906 118.053 76.2773 118.16 75.5626 118.16Z" fill="black"/>
<path d="M84.0713 118C82.3859 118 81.5433 117.061 81.5433 115.184V110.96H80.2952C80.1886 110.96 80.0979 110.928 80.0232 110.864C79.9592 110.789 79.9273 110.699 79.9273 110.592V110.048C79.9273 109.941 79.9592 109.856 80.0232 109.792C80.0979 109.717 80.1886 109.68 80.2952 109.68H81.5433V107.008C81.5433 106.901 81.5753 106.816 81.6393 106.752C81.7139 106.677 81.8046 106.64 81.9112 106.64H82.6633C82.7699 106.64 82.8553 106.677 82.9193 106.752C82.9939 106.816 83.0312 106.901 83.0312 107.008V109.68H85.0153C85.1219 109.68 85.2072 109.717 85.2712 109.792C85.3459 109.856 85.3832 109.941 85.3832 110.048V110.592C85.3832 110.699 85.3459 110.789 85.2712 110.864C85.2072 110.928 85.1219 110.96 85.0153 110.96H83.0312V115.072C83.0312 115.605 83.1219 116.011 83.3033 116.288C83.4846 116.555 83.7832 116.688 84.1992 116.688H85.1752C85.2819 116.688 85.3673 116.725 85.4313 116.8C85.5059 116.864 85.5433 116.949 85.5433 117.056V117.632C85.5433 117.739 85.5059 117.829 85.4313 117.904C85.3673 117.968 85.2819 118 85.1752 118H84.0713Z" fill="black"/>
<path d="M87.3132 108.128C87.2066 108.128 87.1159 108.096 87.0413 108.032C86.9773 107.957 86.9453 107.867 86.9453 107.76V106.896C86.9453 106.789 86.9773 106.699 87.0413 106.624C87.1159 106.549 87.2066 106.512 87.3132 106.512H88.3213C88.4279 106.512 88.5186 106.549 88.5932 106.624C88.6679 106.699 88.7053 106.789 88.7053 106.896V107.76C88.7053 107.867 88.6679 107.957 88.5932 108.032C88.5186 108.096 88.4279 108.128 88.3213 108.128H87.3132ZM87.4413 118C87.3346 118 87.2439 117.968 87.1693 117.904C87.1053 117.829 87.0732 117.739 87.0732 117.632V110.048C87.0732 109.941 87.1053 109.856 87.1693 109.792C87.2439 109.717 87.3346 109.68 87.4413 109.68H88.2093C88.3159 109.68 88.4012 109.717 88.4652 109.792C88.5399 109.856 88.5772 109.941 88.5772 110.048V117.632C88.5772 117.739 88.5399 117.829 88.4652 117.904C88.4012 117.968 88.3159 118 88.2093 118H87.4413Z" fill="black"/>
<path d="M94.3083 118.16C93.1669 118.16 92.2709 117.84 91.6202 117.2C90.9802 116.549 90.6389 115.643 90.5963 114.48L90.5803 113.84L90.5963 113.2C90.6389 112.037 90.9802 111.136 91.6202 110.496C92.2709 109.845 93.1669 109.52 94.3083 109.52C95.0763 109.52 95.7269 109.659 96.2603 109.936C96.7936 110.213 97.1883 110.555 97.4443 110.96C97.7109 111.365 97.8549 111.771 97.8763 112.176C97.8869 112.283 97.8549 112.368 97.7803 112.432C97.7056 112.496 97.6149 112.528 97.5082 112.528H96.7402C96.6336 112.528 96.5536 112.507 96.5003 112.464C96.4469 112.421 96.3936 112.336 96.3402 112.208C96.1589 111.696 95.9029 111.333 95.5723 111.12C95.2416 110.896 94.8256 110.784 94.3242 110.784C93.6629 110.784 93.1349 110.992 92.7402 111.408C92.3562 111.813 92.1482 112.437 92.1162 113.28L92.1003 113.856L92.1162 114.4C92.1482 115.253 92.3562 115.883 92.7402 116.288C93.1242 116.693 93.6522 116.896 94.3242 116.896C94.8256 116.896 95.2416 116.789 95.5723 116.576C95.9029 116.352 96.1589 115.984 96.3402 115.472C96.3936 115.344 96.4469 115.259 96.5003 115.216C96.5536 115.163 96.6336 115.136 96.7402 115.136H97.5082C97.6149 115.136 97.7056 115.173 97.7803 115.248C97.8549 115.312 97.8869 115.397 97.8763 115.504C97.8549 115.899 97.7109 116.304 97.4443 116.72C97.1883 117.125 96.7936 117.467 96.2603 117.744C95.7376 118.021 95.0869 118.16 94.3083 118.16Z" fill="black"/>
<path d="M107.506 118.16C106.621 118.16 105.853 118.021 105.202 117.744C104.562 117.467 104.072 117.104 103.73 116.656C103.389 116.197 103.208 115.707 103.186 115.184C103.186 115.099 103.218 115.024 103.282 114.96C103.357 114.885 103.442 114.848 103.538 114.848H104.354C104.557 114.848 104.696 114.955 104.77 115.168C104.866 115.616 105.138 116 105.586 116.32C106.045 116.64 106.685 116.8 107.506 116.8C108.392 116.8 109.058 116.645 109.506 116.336C109.954 116.016 110.178 115.573 110.178 115.008C110.178 114.645 110.066 114.352 109.842 114.128C109.629 113.904 109.309 113.707 108.882 113.536C108.456 113.365 107.816 113.152 106.962 112.896C106.13 112.661 105.469 112.411 104.978 112.144C104.488 111.877 104.12 111.547 103.874 111.152C103.629 110.757 103.506 110.261 103.506 109.664C103.506 109.088 103.661 108.571 103.97 108.112C104.29 107.653 104.744 107.296 105.33 107.04C105.917 106.773 106.616 106.64 107.426 106.64C108.258 106.64 108.973 106.789 109.57 107.088C110.168 107.376 110.621 107.744 110.93 108.192C111.24 108.64 111.405 109.088 111.426 109.536C111.426 109.621 111.394 109.696 111.33 109.76C111.277 109.824 111.197 109.856 111.09 109.856H110.242C110.018 109.856 109.88 109.755 109.826 109.552C109.762 109.104 109.512 108.736 109.074 108.448C108.637 108.149 108.088 108 107.426 108C106.701 108 106.13 108.139 105.714 108.416C105.298 108.693 105.09 109.104 105.09 109.648C105.09 110.011 105.186 110.309 105.378 110.544C105.581 110.779 105.885 110.987 106.29 111.168C106.696 111.339 107.288 111.536 108.066 111.76C108.973 112.005 109.688 112.261 110.21 112.528C110.733 112.784 111.122 113.109 111.378 113.504C111.634 113.888 111.762 114.379 111.762 114.976C111.762 115.968 111.378 116.747 110.61 117.312C109.842 117.877 108.808 118.16 107.506 118.16Z" fill="black"/>
<path d="M117.011 118.16C115.87 118.16 114.974 117.84 114.323 117.2C113.683 116.549 113.342 115.643 113.299 114.48L113.283 113.84L113.299 113.2C113.342 112.037 113.683 111.136 114.323 110.496C114.974 109.845 115.87 109.52 117.011 109.52C117.779 109.52 118.43 109.659 118.963 109.936C119.497 110.213 119.891 110.555 120.147 110.96C120.414 111.365 120.558 111.771 120.579 112.176C120.59 112.283 120.558 112.368 120.483 112.432C120.409 112.496 120.318 112.528 120.211 112.528H119.443C119.337 112.528 119.257 112.507 119.203 112.464C119.15 112.421 119.097 112.336 119.043 112.208C118.862 111.696 118.606 111.333 118.275 111.12C117.945 110.896 117.529 110.784 117.027 110.784C116.366 110.784 115.838 110.992 115.443 111.408C115.059 111.813 114.851 112.437 114.819 113.28L114.803 113.856L114.819 114.4C114.851 115.253 115.059 115.883 115.443 116.288C115.827 116.693 116.355 116.896 117.027 116.896C117.529 116.896 117.945 116.789 118.275 116.576C118.606 116.352 118.862 115.984 119.043 115.472C119.097 115.344 119.15 115.259 119.203 115.216C119.257 115.163 119.337 115.136 119.443 115.136H120.211C120.318 115.136 120.409 115.173 120.483 115.248C120.558 115.312 120.59 115.397 120.579 115.504C120.558 115.899 120.414 116.304 120.147 116.72C119.891 117.125 119.497 117.467 118.963 117.744C118.441 118.021 117.79 118.16 117.011 118.16Z" fill="black"/>
<path d="M122.864 118C122.757 118 122.666 117.968 122.591 117.904C122.527 117.829 122.495 117.739 122.495 117.632V107.008C122.495 106.901 122.527 106.816 122.591 106.752C122.666 106.677 122.757 106.64 122.864 106.64H123.663C123.77 106.64 123.856 106.677 123.92 106.752C123.994 106.816 124.032 106.901 124.032 107.008V110.736C124.341 110.341 124.703 110.043 125.119 109.84C125.535 109.627 126.053 109.52 126.672 109.52C127.696 109.52 128.49 109.851 129.055 110.512C129.631 111.163 129.919 112.032 129.919 113.12V117.632C129.919 117.739 129.882 117.829 129.807 117.904C129.743 117.968 129.658 118 129.551 118H128.751C128.645 118 128.554 117.968 128.48 117.904C128.416 117.829 128.383 117.739 128.383 117.632V113.2C128.383 112.443 128.197 111.856 127.824 111.44C127.461 111.024 126.933 110.816 126.24 110.816C125.568 110.816 125.029 111.029 124.623 111.456C124.229 111.872 124.032 112.453 124.032 113.2V117.632C124.032 117.739 123.994 117.829 123.92 117.904C123.856 117.968 123.77 118 123.663 118H122.864Z" fill="black"/>
<path d="M135.557 118.16C134.459 118.16 133.579 117.824 132.917 117.152C132.267 116.469 131.91 115.541 131.846 114.368L131.829 113.824L131.846 113.296C131.92 112.144 132.283 111.227 132.934 110.544C133.595 109.861 134.464 109.52 135.542 109.52C136.726 109.52 137.643 109.899 138.294 110.656C138.944 111.403 139.27 112.416 139.27 113.696V113.968C139.27 114.075 139.232 114.165 139.158 114.24C139.094 114.304 139.008 114.336 138.902 114.336H133.365V114.48C133.397 115.173 133.606 115.765 133.99 116.256C134.384 116.736 134.902 116.976 135.542 116.976C136.032 116.976 136.432 116.88 136.742 116.688C137.062 116.485 137.296 116.277 137.445 116.064C137.541 115.936 137.611 115.861 137.654 115.84C137.707 115.808 137.798 115.792 137.926 115.792H138.71C138.806 115.792 138.885 115.819 138.949 115.872C139.013 115.925 139.046 116 139.046 116.096C139.046 116.331 138.896 116.613 138.598 116.944C138.31 117.275 137.899 117.563 137.365 117.808C136.843 118.043 136.24 118.16 135.557 118.16ZM137.749 113.232V113.184C137.749 112.448 137.547 111.851 137.141 111.392C136.747 110.923 136.214 110.688 135.542 110.688C134.87 110.688 134.336 110.923 133.941 111.392C133.557 111.851 133.365 112.448 133.365 113.184V113.232H137.749Z" fill="black"/>
<path d="M144.223 118.16C143.113 118.16 142.276 117.797 141.711 117.072C141.145 116.347 140.847 115.429 140.815 114.32L140.799 113.84L140.815 113.36C140.847 112.261 141.145 111.349 141.711 110.624C142.276 109.888 143.113 109.52 144.223 109.52C145.321 109.52 146.185 109.909 146.815 110.688V107.008C146.815 106.901 146.847 106.816 146.911 106.752C146.985 106.677 147.076 106.64 147.183 106.64H147.951C148.057 106.64 148.143 106.677 148.207 106.752C148.281 106.816 148.319 106.901 148.319 107.008V117.632C148.319 117.739 148.281 117.829 148.207 117.904C148.143 117.968 148.057 118 147.951 118H147.231C147.124 118 147.033 117.968 146.959 117.904C146.895 117.829 146.863 117.739 146.863 117.632V116.96C146.244 117.76 145.364 118.16 144.223 118.16ZM144.559 116.864C145.295 116.864 145.844 116.624 146.207 116.144C146.58 115.653 146.783 115.072 146.815 114.4C146.825 114.283 146.831 114.08 146.831 113.792C146.831 113.493 146.825 113.285 146.815 113.168C146.793 112.539 146.591 111.989 146.207 111.52C145.823 111.051 145.273 110.816 144.559 110.816C143.801 110.816 143.247 111.051 142.895 111.52C142.553 111.989 142.367 112.608 142.335 113.376L142.319 113.84C142.319 115.856 143.065 116.864 144.559 116.864Z" fill="black"/>
<path d="M153.802 118.16C152.789 118.16 152.005 117.835 151.45 117.184C150.896 116.523 150.618 115.648 150.618 114.56V110.048C150.618 109.941 150.65 109.856 150.714 109.792C150.789 109.717 150.88 109.68 150.986 109.68H151.786C151.893 109.68 151.978 109.717 152.042 109.792C152.117 109.856 152.154 109.941 152.154 110.048V114.48C152.154 116.069 152.848 116.864 154.234 116.864C154.906 116.864 155.44 116.656 155.834 116.24C156.229 115.813 156.426 115.227 156.426 114.48V110.048C156.426 109.941 156.458 109.856 156.522 109.792C156.597 109.717 156.688 109.68 156.794 109.68H157.594C157.701 109.68 157.786 109.717 157.85 109.792C157.914 109.856 157.946 109.941 157.946 110.048V117.632C157.946 117.739 157.914 117.829 157.85 117.904C157.786 117.968 157.701 118 157.594 118H156.842C156.736 118 156.645 117.968 156.57 117.904C156.506 117.829 156.474 117.739 156.474 117.632V116.928C156.176 117.333 155.813 117.643 155.386 117.856C154.96 118.059 154.432 118.16 153.802 118.16Z" fill="black"/>
<path d="M160.707 118C160.601 118 160.51 117.968 160.435 117.904C160.371 117.829 160.339 117.739 160.339 117.632V107.008C160.339 106.901 160.371 106.816 160.435 106.752C160.51 106.677 160.601 106.64 160.707 106.64H161.459C161.566 106.64 161.651 106.677 161.715 106.752C161.79 106.816 161.827 106.901 161.827 107.008V117.632C161.827 117.739 161.79 117.829 161.715 117.904C161.651 117.968 161.566 118 161.459 118H160.707Z" fill="black"/>
<path d="M164.454 108.128C164.347 108.128 164.257 108.096 164.182 108.032C164.118 107.957 164.086 107.867 164.086 107.76V106.896C164.086 106.789 164.118 106.699 164.182 106.624C164.257 106.549 164.347 106.512 164.454 106.512H165.462C165.569 106.512 165.659 106.549 165.734 106.624C165.809 106.699 165.846 106.789 165.846 106.896V107.76C165.846 107.867 165.809 107.957 165.734 108.032C165.659 108.096 165.569 108.128 165.462 108.128H164.454ZM164.582 118C164.475 118 164.385 117.968 164.31 117.904C164.246 117.829 164.214 117.739 164.214 117.632V110.048C164.214 109.941 164.246 109.856 164.31 109.792C164.385 109.717 164.475 109.68 164.582 109.68H165.35C165.457 109.68 165.542 109.717 165.606 109.792C165.681 109.856 165.718 109.941 165.718 110.048V117.632C165.718 117.739 165.681 117.829 165.606 117.904C165.542 117.968 165.457 118 165.35 118H164.582Z" fill="black"/>
<path d="M168.457 118C168.35 118 168.26 117.968 168.185 117.904C168.121 117.829 168.089 117.739 168.089 117.632V110.048C168.089 109.941 168.121 109.856 168.185 109.792C168.26 109.717 168.35 109.68 168.457 109.68H169.209C169.316 109.68 169.401 109.717 169.465 109.792C169.54 109.856 169.577 109.941 169.577 110.048V110.752C169.886 110.357 170.249 110.053 170.665 109.84C171.092 109.627 171.62 109.52 172.249 109.52C173.273 109.52 174.068 109.851 174.633 110.512C175.209 111.163 175.497 112.032 175.497 113.12V117.632C175.497 117.739 175.46 117.829 175.385 117.904C175.321 117.968 175.236 118 175.129 118H174.329C174.222 118 174.132 117.968 174.057 117.904C173.993 117.829 173.961 117.739 173.961 117.632V113.2C173.961 112.443 173.774 111.856 173.401 111.44C173.038 111.024 172.51 110.816 171.817 110.816C171.145 110.816 170.612 111.029 170.217 111.456C169.822 111.872 169.625 112.453 169.625 113.2V117.632C169.625 117.739 169.588 117.829 169.513 117.904C169.449 117.968 169.364 118 169.257 118H168.457Z" fill="black"/>
<path d="M181.2 121.52C180.325 121.52 179.621 121.371 179.088 121.072C178.555 120.784 178.176 120.453 177.952 120.08C177.728 119.707 177.605 119.371 177.584 119.072C177.573 118.965 177.605 118.875 177.68 118.8C177.765 118.725 177.856 118.688 177.952 118.688H178.72C178.816 118.688 178.896 118.709 178.96 118.752C179.024 118.805 179.077 118.896 179.12 119.024C179.248 119.365 179.456 119.659 179.744 119.904C180.043 120.16 180.501 120.288 181.12 120.288C181.909 120.288 182.491 120.117 182.864 119.776C183.237 119.445 183.424 118.853 183.424 118V116.912C183.147 117.264 182.795 117.547 182.368 117.76C181.941 117.963 181.435 118.064 180.848 118.064C179.717 118.064 178.869 117.707 178.304 116.992C177.749 116.267 177.456 115.349 177.424 114.24L177.408 113.792L177.424 113.36C177.456 112.261 177.755 111.349 178.32 110.624C178.885 109.888 179.728 109.52 180.848 109.52C181.968 109.52 182.843 109.931 183.472 110.752V110.064C183.472 109.957 183.504 109.867 183.568 109.792C183.643 109.717 183.733 109.68 183.84 109.68H184.576C184.683 109.68 184.773 109.717 184.848 109.792C184.923 109.867 184.96 109.957 184.96 110.064V117.824C184.96 120.288 183.707 121.52 181.2 121.52ZM181.168 116.784C181.893 116.784 182.443 116.544 182.816 116.064C183.189 115.584 183.392 115.013 183.424 114.352C183.435 114.256 183.44 114.069 183.44 113.792C183.44 113.525 183.435 113.344 183.424 113.248C183.392 112.587 183.189 112.016 182.816 111.536C182.453 111.056 181.904 110.816 181.168 110.816C180.411 110.816 179.861 111.051 179.52 111.52C179.179 111.989 178.992 112.608 178.96 113.376L178.944 113.792L178.96 114.224C178.992 114.981 179.179 115.6 179.52 116.08C179.861 116.549 180.411 116.784 181.168 116.784Z" fill="black"/>
<path d="M193.878 118C193.772 118 193.681 117.968 193.607 117.904C193.543 117.829 193.51 117.739 193.51 117.632V108.224H190.439C190.332 108.224 190.241 108.192 190.167 108.128C190.103 108.053 190.07 107.963 190.07 107.856V107.184C190.07 107.077 190.103 106.987 190.167 106.912C190.241 106.837 190.332 106.8 190.439 106.8H198.15C198.268 106.8 198.359 106.837 198.423 106.912C198.497 106.976 198.535 107.067 198.535 107.184V107.856C198.535 107.963 198.497 108.053 198.423 108.128C198.348 108.192 198.257 108.224 198.15 108.224H195.094V117.632C195.094 117.739 195.057 117.829 194.982 117.904C194.908 117.968 194.817 118 194.71 118H193.878Z" fill="black"/>
<path d="M200.192 118C200.085 118 199.994 117.968 199.92 117.904C199.856 117.829 199.824 117.739 199.824 117.632V107.008C199.824 106.901 199.856 106.816 199.92 106.752C199.994 106.677 200.085 106.64 200.192 106.64H200.992C201.098 106.64 201.184 106.677 201.248 106.752C201.322 106.816 201.36 106.901 201.36 107.008V110.736C201.669 110.341 202.032 110.043 202.448 109.84C202.864 109.627 203.381 109.52 204 109.52C205.024 109.52 205.818 109.851 206.384 110.512C206.96 111.163 207.248 112.032 207.248 113.12V117.632C207.248 117.739 207.21 117.829 207.136 117.904C207.072 117.968 206.986 118 206.88 118H206.08C205.973 118 205.882 117.968 205.808 117.904C205.744 117.829 205.712 117.739 205.712 117.632V113.2C205.712 112.443 205.525 111.856 205.152 111.44C204.789 111.024 204.261 110.816 203.568 110.816C202.896 110.816 202.357 111.029 201.952 111.456C201.557 111.872 201.36 112.453 201.36 113.2V117.632C201.36 117.739 201.322 117.829 201.248 117.904C201.184 117.968 201.098 118 200.992 118H200.192Z" fill="black"/>
<path d="M212.886 118.16C211.787 118.16 210.907 117.824 210.246 117.152C209.595 116.469 209.238 115.541 209.174 114.368L209.158 113.824L209.174 113.296C209.248 112.144 209.611 111.227 210.262 110.544C210.923 109.861 211.792 109.52 212.87 109.52C214.054 109.52 214.971 109.899 215.622 110.656C216.272 111.403 216.598 112.416 216.598 113.696V113.968C216.598 114.075 216.56 114.165 216.486 114.24C216.422 114.304 216.336 114.336 216.23 114.336H210.694V114.48C210.726 115.173 210.934 115.765 211.318 116.256C211.712 116.736 212.23 116.976 212.87 116.976C213.36 116.976 213.76 116.88 214.07 116.688C214.39 116.485 214.624 116.277 214.774 116.064C214.87 115.936 214.939 115.861 214.982 115.84C215.035 115.808 215.126 115.792 215.254 115.792H216.038C216.134 115.792 216.214 115.819 216.278 115.872C216.342 115.925 216.374 116 216.374 116.096C216.374 116.331 216.224 116.613 215.926 116.944C215.638 117.275 215.227 117.563 214.694 117.808C214.171 118.043 213.568 118.16 212.886 118.16ZM215.078 113.232V113.184C215.078 112.448 214.875 111.851 214.47 111.392C214.075 110.923 213.542 110.688 212.87 110.688C212.198 110.688 211.664 110.923 211.27 111.392C210.886 111.851 210.694 112.448 210.694 113.184V113.232H215.078Z" fill="black"/>
<path d="M221.919 118.16C220.745 118.16 219.833 117.829 219.183 117.168C218.543 116.507 218.201 115.627 218.159 114.528L218.143 113.84L218.159 113.152C218.201 112.064 218.548 111.189 219.199 110.528C219.849 109.856 220.756 109.52 221.919 109.52C223.081 109.52 223.988 109.856 224.639 110.528C225.289 111.189 225.636 112.064 225.679 113.152C225.689 113.269 225.695 113.499 225.695 113.84C225.695 114.181 225.689 114.411 225.679 114.528C225.636 115.627 225.289 116.507 224.639 117.168C223.999 117.829 223.092 118.16 221.919 118.16ZM221.919 116.928C222.591 116.928 223.119 116.715 223.503 116.288C223.897 115.861 224.111 115.248 224.143 114.448C224.153 114.341 224.159 114.139 224.159 113.84C224.159 113.541 224.153 113.339 224.143 113.232C224.111 112.432 223.897 111.819 223.503 111.392C223.119 110.965 222.591 110.752 221.919 110.752C221.247 110.752 220.713 110.965 220.319 111.392C219.924 111.819 219.716 112.432 219.695 113.232L219.679 113.84L219.695 114.448C219.716 115.248 219.924 115.861 220.319 116.288C220.713 116.715 221.247 116.928 221.919 116.928Z" fill="black"/>
<path d="M228.066 118C227.96 118 227.869 117.968 227.794 117.904C227.73 117.829 227.698 117.739 227.698 117.632V110.064C227.698 109.957 227.73 109.867 227.794 109.792C227.869 109.717 227.96 109.68 228.066 109.68H228.802C228.909 109.68 229 109.717 229.074 109.792C229.149 109.867 229.186 109.957 229.186 110.064V110.768C229.624 110.043 230.37 109.68 231.426 109.68H232.05C232.157 109.68 232.242 109.717 232.306 109.792C232.381 109.856 232.418 109.941 232.418 110.048V110.704C232.418 110.811 232.381 110.896 232.306 110.96C232.242 111.024 232.157 111.056 232.05 111.056H231.09C230.514 111.056 230.061 111.227 229.73 111.568C229.4 111.899 229.234 112.352 229.234 112.928V117.632C229.234 117.739 229.197 117.829 229.122 117.904C229.048 117.968 228.957 118 228.85 118H228.066Z" fill="black"/>
<path d="M235.232 121.04C235.147 121.04 235.072 121.008 235.008 120.944C234.944 120.88 234.912 120.805 234.912 120.72C234.912 120.645 234.939 120.549 234.992 120.432L236.224 117.504L233.168 110.288C233.115 110.149 233.088 110.059 233.088 110.016C233.088 109.92 233.12 109.84 233.184 109.776C233.248 109.712 233.328 109.68 233.424 109.68H234.208C234.379 109.68 234.507 109.771 234.592 109.952L237.024 115.776L239.52 109.952C239.606 109.771 239.739 109.68 239.92 109.68H240.672C240.768 109.68 240.848 109.712 240.912 109.776C240.976 109.84 241.008 109.915 241.008 110C241.008 110.032 240.982 110.128 240.928 110.288L236.384 120.768C236.299 120.949 236.166 121.04 235.984 121.04H235.232Z" fill="black"/>
<path d="M246.68 118C246.574 118 246.483 117.968 246.408 117.904C246.344 117.829 246.312 117.739 246.312 117.632V107.184C246.312 107.067 246.344 106.976 246.408 106.912C246.483 106.837 246.574 106.8 246.68 106.8H253.208C253.326 106.8 253.416 106.837 253.48 106.912C253.555 106.976 253.592 107.067 253.592 107.184V107.824C253.592 107.931 253.555 108.021 253.48 108.096C253.416 108.16 253.326 108.192 253.208 108.192H247.865V111.92H252.889C253.006 111.92 253.097 111.957 253.161 112.032C253.235 112.096 253.273 112.187 253.273 112.304V112.944C253.273 113.051 253.235 113.141 253.161 113.216C253.086 113.28 252.995 113.312 252.889 113.312H247.865V117.632C247.865 117.739 247.827 117.829 247.753 117.904C247.678 117.968 247.587 118 247.48 118H246.68Z" fill="black"/>
<path d="M255.598 118C255.491 118 255.4 117.968 255.326 117.904C255.262 117.829 255.23 117.739 255.23 117.632V110.064C255.23 109.957 255.262 109.867 255.326 109.792C255.4 109.717 255.491 109.68 255.598 109.68H256.333C256.44 109.68 256.531 109.717 256.605 109.792C256.68 109.867 256.717 109.957 256.717 110.064V110.768C257.155 110.043 257.901 109.68 258.957 109.68H259.582C259.688 109.68 259.773 109.717 259.837 109.792C259.912 109.856 259.949 109.941 259.949 110.048V110.704C259.949 110.811 259.912 110.896 259.837 110.96C259.773 111.024 259.688 111.056 259.582 111.056H258.621C258.045 111.056 257.592 111.227 257.262 111.568C256.931 111.899 256.766 112.352 256.766 112.928V117.632C256.766 117.739 256.728 117.829 256.654 117.904C256.579 117.968 256.488 118 256.382 118H255.598Z" fill="black"/>
<path d="M263.503 118.16C262.98 118.16 262.495 118.053 262.047 117.84C261.599 117.627 261.241 117.339 260.975 116.976C260.719 116.603 260.591 116.192 260.591 115.744C260.591 115.04 260.879 114.464 261.455 114.016C262.041 113.557 262.831 113.259 263.823 113.12L266.207 112.784V112.32C266.207 111.232 265.583 110.688 264.335 110.688C263.865 110.688 263.481 110.789 263.183 110.992C262.884 111.184 262.66 111.413 262.511 111.68C262.479 111.776 262.436 111.845 262.383 111.888C262.34 111.931 262.276 111.952 262.191 111.952H261.503C261.407 111.952 261.321 111.92 261.247 111.856C261.183 111.781 261.151 111.696 261.151 111.6C261.161 111.344 261.279 111.056 261.503 110.736C261.737 110.405 262.095 110.123 262.575 109.888C263.055 109.643 263.647 109.52 264.351 109.52C265.545 109.52 266.404 109.803 266.927 110.368C267.449 110.923 267.711 111.616 267.711 112.448V117.632C267.711 117.739 267.673 117.829 267.599 117.904C267.535 117.968 267.449 118 267.343 118H266.607C266.5 118 266.409 117.968 266.335 117.904C266.271 117.829 266.239 117.739 266.239 117.632V116.944C266.004 117.285 265.663 117.573 265.215 117.808C264.767 118.043 264.196 118.16 263.503 118.16ZM263.839 116.96C264.532 116.96 265.097 116.736 265.535 116.288C265.983 115.829 266.207 115.173 266.207 114.32V113.872L264.351 114.144C263.593 114.251 263.023 114.432 262.639 114.688C262.255 114.933 262.063 115.248 262.063 115.632C262.063 116.059 262.239 116.389 262.591 116.624C262.943 116.848 263.359 116.96 263.839 116.96Z" fill="black"/>
<path d="M270.379 118C270.272 118 270.181 117.968 270.107 117.904C270.043 117.829 270.011 117.739 270.011 117.632V110.048C270.011 109.941 270.043 109.856 270.107 109.792C270.181 109.717 270.272 109.68 270.379 109.68H271.099C271.205 109.68 271.291 109.717 271.355 109.792C271.429 109.856 271.467 109.941 271.467 110.048V110.608C272.021 109.883 272.795 109.52 273.787 109.52C274.971 109.52 275.808 110.011 276.299 110.992C276.555 110.544 276.917 110.187 277.387 109.92C277.856 109.653 278.384 109.52 278.971 109.52C279.845 109.52 280.56 109.819 281.115 110.416C281.669 111.013 281.947 111.877 281.947 113.008V117.632C281.947 117.739 281.909 117.829 281.835 117.904C281.771 117.968 281.685 118 281.579 118H280.827C280.72 118 280.629 117.968 280.555 117.904C280.491 117.829 280.459 117.739 280.459 117.632V113.152C280.459 112.32 280.283 111.723 279.931 111.36C279.589 110.997 279.136 110.816 278.571 110.816C278.069 110.816 277.637 111.003 277.275 111.376C276.912 111.739 276.731 112.331 276.731 113.152V117.632C276.731 117.739 276.693 117.829 276.619 117.904C276.555 117.968 276.469 118 276.363 118H275.611C275.504 118 275.413 117.968 275.339 117.904C275.275 117.829 275.243 117.739 275.243 117.632V113.152C275.243 112.32 275.061 111.723 274.699 111.36C274.347 110.997 273.899 110.816 273.355 110.816C272.853 110.816 272.421 111.003 272.059 111.376C271.696 111.739 271.515 112.325 271.515 113.136V117.632C271.515 117.739 271.477 117.829 271.403 117.904C271.339 117.968 271.253 118 271.147 118H270.379Z" fill="black"/>
<path d="M287.557 118.16C286.459 118.16 285.579 117.824 284.918 117.152C284.267 116.469 283.909 115.541 283.845 114.368L283.829 113.824L283.845 113.296C283.92 112.144 284.283 111.227 284.934 110.544C285.595 109.861 286.464 109.52 287.542 109.52C288.726 109.52 289.643 109.899 290.293 110.656C290.944 111.403 291.27 112.416 291.27 113.696V113.968C291.27 114.075 291.232 114.165 291.158 114.24C291.094 114.304 291.008 114.336 290.901 114.336H285.366V114.48C285.398 115.173 285.606 115.765 285.99 116.256C286.384 116.736 286.902 116.976 287.542 116.976C288.032 116.976 288.432 116.88 288.741 116.688C289.061 116.485 289.296 116.277 289.445 116.064C289.541 115.936 289.611 115.861 289.654 115.84C289.707 115.808 289.798 115.792 289.926 115.792H290.71C290.806 115.792 290.885 115.819 290.949 115.872C291.013 115.925 291.046 116 291.046 116.096C291.046 116.331 290.896 116.613 290.598 116.944C290.31 117.275 289.899 117.563 289.366 117.808C288.843 118.043 288.24 118.16 287.557 118.16ZM289.75 113.232V113.184C289.75 112.448 289.547 111.851 289.142 111.392C288.747 110.923 288.214 110.688 287.542 110.688C286.87 110.688 286.336 110.923 285.941 111.392C285.557 111.851 285.366 112.448 285.366 113.184V113.232H289.75Z" fill="black"/>
<path d="M295.172 118C295.033 118 294.927 117.968 294.852 117.904C294.777 117.84 294.713 117.739 294.66 117.6L292.388 110.176L292.356 110.016C292.356 109.92 292.388 109.84 292.452 109.776C292.527 109.712 292.607 109.68 292.692 109.68H293.396C293.503 109.68 293.588 109.712 293.652 109.776C293.727 109.829 293.775 109.888 293.796 109.952L295.572 115.984L297.476 110.016C297.497 109.931 297.545 109.856 297.62 109.792C297.695 109.717 297.796 109.68 297.924 109.68H298.468C298.596 109.68 298.697 109.717 298.772 109.792C298.847 109.856 298.895 109.931 298.916 110.016L300.82 115.984L302.596 109.952C302.607 109.899 302.644 109.84 302.708 109.776C302.783 109.712 302.873 109.68 302.98 109.68H303.7C303.785 109.68 303.86 109.712 303.924 109.776C303.988 109.84 304.02 109.92 304.02 110.016L303.988 110.176L301.732 117.6C301.679 117.739 301.615 117.84 301.54 117.904C301.465 117.968 301.353 118 301.204 118H300.58C300.292 118 300.116 117.867 300.052 117.6L298.196 111.872L296.34 117.6C296.255 117.867 296.073 118 295.796 118H295.172Z" fill="black"/>
<path d="M308.981 118.16C307.808 118.16 306.896 117.829 306.245 117.168C305.605 116.507 305.264 115.627 305.221 114.528L305.205 113.84L305.221 113.152C305.264 112.064 305.611 111.189 306.261 110.528C306.912 109.856 307.819 109.52 308.981 109.52C310.144 109.52 311.051 109.856 311.701 110.528C312.352 111.189 312.699 112.064 312.741 113.152C312.752 113.269 312.757 113.499 312.757 113.84C312.757 114.181 312.752 114.411 312.741 114.528C312.699 115.627 312.352 116.507 311.701 117.168C311.061 117.829 310.155 118.16 308.981 118.16ZM308.981 116.928C309.653 116.928 310.181 116.715 310.565 116.288C310.96 115.861 311.173 115.248 311.205 114.448C311.216 114.341 311.221 114.139 311.221 113.84C311.221 113.541 311.216 113.339 311.205 113.232C311.173 112.432 310.96 111.819 310.565 111.392C310.181 110.965 309.653 110.752 308.981 110.752C308.309 110.752 307.776 110.965 307.381 111.392C306.987 111.819 306.779 112.432 306.757 113.232L306.741 113.84L306.757 114.448C306.779 115.248 306.987 115.861 307.381 116.288C307.776 116.715 308.309 116.928 308.981 116.928Z" fill="black"/>
<path d="M315.129 118C315.022 118 314.931 117.968 314.857 117.904C314.793 117.829 314.761 117.739 314.761 117.632V110.064C314.761 109.957 314.793 109.867 314.857 109.792C314.931 109.717 315.022 109.68 315.129 109.68H315.865C315.971 109.68 316.062 109.717 316.137 109.792C316.211 109.867 316.249 109.957 316.249 110.064V110.768C316.686 110.043 317.433 109.68 318.489 109.68H319.113C319.219 109.68 319.305 109.717 319.369 109.792C319.443 109.856 319.481 109.941 319.481 110.048V110.704C319.481 110.811 319.443 110.896 319.369 110.96C319.305 111.024 319.219 111.056 319.113 111.056H318.153C317.577 111.056 317.123 111.227 316.793 111.568C316.462 111.899 316.297 112.352 316.297 112.928V117.632C316.297 117.739 316.259 117.829 316.185 117.904C316.11 117.968 316.019 118 315.913 118H315.129Z" fill="black"/>
<path d="M321.223 118C321.116 118 321.026 117.968 320.951 117.904C320.887 117.829 320.855 117.739 320.855 117.632V107.008C320.855 106.901 320.887 106.816 320.951 106.752C321.026 106.677 321.116 106.64 321.223 106.64H321.975C322.082 106.64 322.167 106.677 322.231 106.752C322.306 106.816 322.343 106.901 322.343 107.008V112.576L325.495 109.952C325.527 109.931 325.58 109.888 325.655 109.824C325.73 109.771 325.799 109.733 325.863 109.712C325.938 109.691 326.028 109.68 326.135 109.68H326.983C327.079 109.68 327.159 109.712 327.223 109.776C327.287 109.84 327.319 109.92 327.319 110.016C327.319 110.133 327.255 110.235 327.127 110.32L323.431 113.392L327.527 117.376C327.655 117.483 327.719 117.579 327.719 117.664C327.719 117.76 327.687 117.84 327.623 117.904C327.559 117.968 327.479 118 327.383 118H326.551C326.391 118 326.274 117.984 326.199 117.952C326.135 117.92 326.039 117.845 325.911 117.728L322.343 114.32V117.632C322.343 117.739 322.306 117.829 322.231 117.904C322.167 117.968 322.082 118 321.975 118H321.223Z" fill="black"/>
</svg>
