<svg width="500" height="250" viewBox="0 0 500 250" fill="none" xmlns="http://www.w3.org/2000/svg">
<path d="M144.974 130.733C144.61 130.733 144.282 130.606 143.99 130.351C143.735 130.06 143.608 129.732 143.608 129.368V93.8783C143.608 93.4779 143.735 93.1503 143.99 92.8955C144.282 92.6407 144.61 92.5133 144.974 92.5133H159.178C164.532 92.5133 168.684 93.7873 171.634 96.3353C174.584 98.8833 176.132 102.578 176.277 107.419C176.314 108.475 176.332 109.876 176.332 111.623C176.332 113.371 176.314 114.754 176.277 115.773C176.095 120.833 174.584 124.6 171.743 127.075C168.939 129.514 164.841 130.733 159.451 130.733H144.974ZM159.178 122.871C161.582 122.871 163.348 122.307 164.477 121.178C165.606 120.014 166.207 118.175 166.28 115.664C166.353 114.608 166.389 113.243 166.389 111.569C166.389 109.894 166.353 108.548 166.28 107.528C166.207 105.09 165.551 103.288 164.313 102.123C163.111 100.958 161.308 100.376 158.905 100.376H153.442V122.871H159.178Z" fill="black"/>
<path d="M233.743 131.279C230.283 131.279 227.315 130.77 224.838 129.751C222.362 128.731 220.486 127.403 219.211 125.765C217.973 124.09 217.317 122.27 217.244 120.305C217.244 120.014 217.354 119.759 217.572 119.54C217.827 119.286 218.119 119.158 218.446 119.158H225.33C225.767 119.158 226.113 119.249 226.368 119.431C226.659 119.577 226.951 119.813 227.242 120.141C227.715 121.087 228.48 121.87 229.536 122.489C230.593 123.108 231.995 123.417 233.743 123.417C235.819 123.417 237.403 123.089 238.496 122.434C239.589 121.779 240.135 120.887 240.135 119.759C240.135 118.958 239.843 118.303 239.261 117.793C238.714 117.284 237.84 116.829 236.638 116.428C235.437 116.028 233.652 115.573 231.285 115.063C226.914 114.153 223.636 112.825 221.451 111.077C219.302 109.294 218.228 106.764 218.228 103.488C218.228 101.268 218.847 99.2837 220.085 97.5365C221.324 95.7893 223.09 94.4243 225.384 93.4415C227.679 92.4587 230.356 91.9673 233.415 91.9673C236.584 91.9673 239.334 92.5133 241.664 93.6053C243.995 94.6973 245.762 96.0805 246.964 97.7549C248.202 99.3929 248.858 101.013 248.93 102.614C248.93 102.942 248.821 103.215 248.603 103.433C248.384 103.652 248.111 103.761 247.783 103.761H240.572C240.135 103.761 239.771 103.688 239.479 103.543C239.224 103.397 238.988 103.16 238.769 102.833C238.551 101.996 237.95 101.286 236.966 100.703C236.019 100.121 234.836 99.8297 233.415 99.8297C231.776 99.8297 230.52 100.121 229.646 100.703C228.772 101.286 228.335 102.141 228.335 103.27C228.335 104.034 228.571 104.671 229.045 105.181C229.555 105.69 230.356 106.163 231.449 106.6C232.578 107.001 234.18 107.419 236.256 107.856C239.643 108.475 242.338 109.257 244.341 110.204C246.381 111.114 247.874 112.315 248.821 113.807C249.768 115.263 250.242 117.102 250.242 119.322C250.242 121.761 249.531 123.89 248.111 125.71C246.727 127.494 244.778 128.877 242.265 129.86C239.789 130.806 236.948 131.279 233.743 131.279Z" fill="black"/>
<path d="M265.115 130.733C264.751 130.733 264.423 130.606 264.131 130.351C263.877 130.06 263.749 129.732 263.749 129.368V101.086H254.025C253.661 101.086 253.333 100.958 253.041 100.703C252.786 100.412 252.659 100.085 252.659 99.7205V93.8783C252.659 93.4779 252.786 93.1503 253.041 92.8955C253.333 92.6407 253.661 92.5133 254.025 92.5133H283.416C283.817 92.5133 284.145 92.6407 284.4 92.8955C284.654 93.1503 284.782 93.4779 284.782 93.8783V99.7205C284.782 100.121 284.654 100.449 284.4 100.703C284.145 100.958 283.817 101.086 283.416 101.086H273.692V129.368C273.692 129.732 273.564 130.06 273.309 130.351C273.055 130.606 272.727 130.733 272.326 130.733H265.115Z" fill="black"/>
<path d="M330.112 130.733C329.748 130.733 329.42 130.606 329.129 130.351C328.874 130.06 328.746 129.732 328.746 129.368V93.8783C328.746 93.4779 328.874 93.1503 329.129 92.8955C329.42 92.6407 329.748 92.5133 330.112 92.5133H355.242C355.643 92.5133 355.971 92.6407 356.226 92.8955C356.481 93.1503 356.608 93.4779 356.608 93.8783V99.3929C356.608 99.7569 356.481 100.085 356.226 100.376C355.971 100.631 355.643 100.758 355.242 100.758H338.361V108.784H354.15C354.55 108.784 354.878 108.93 355.133 109.221C355.388 109.476 355.515 109.803 355.515 110.204V115.664C355.515 116.028 355.388 116.355 355.133 116.647C354.878 116.901 354.55 117.029 354.15 117.029H338.361V129.368C338.361 129.769 338.234 130.096 337.979 130.351C337.724 130.606 337.396 130.733 336.995 130.733H330.112Z" fill="black"/>
<path d="M194.415 67.0333C194.415 65.3581 195.774 64 197.45 64C199.126 64 200.485 65.3581 200.485 67.0333V151.967C200.485 153.642 199.126 155 197.45 155C195.774 155 194.415 153.642 194.415 151.967V67.0333Z" fill="black"/>
<path d="M303.677 67.0333C303.677 65.3581 305.036 64 306.712 64C308.388 64 309.747 65.3581 309.747 67.0333V151.967C309.747 153.642 308.388 155 306.712 155C305.036 155 303.677 153.642 303.677 151.967V67.0333Z" fill="black"/>
<path d="M86.368 182C86.2613 182 86.1707 181.968 86.096 181.904C86.032 181.829 86 181.739 86 181.632V171.184C86 171.067 86.032 170.976 86.096 170.912C86.1707 170.837 86.2613 170.8 86.368 170.8H90C91.6107 170.8 92.7733 171.163 93.488 171.888C94.2027 172.603 94.576 173.685 94.608 175.136C94.6187 175.445 94.624 175.861 94.624 176.384C94.624 176.907 94.6187 177.328 94.608 177.648C94.576 178.661 94.4053 179.488 94.096 180.128C93.7973 180.757 93.3227 181.227 92.672 181.536C92.0213 181.845 91.1573 182 90.08 182H86.368ZM90 180.64C90.736 180.64 91.3173 180.539 91.744 180.336C92.1813 180.133 92.496 179.813 92.688 179.376C92.8907 178.928 93.0027 178.331 93.024 177.584C93.0453 176.944 93.056 176.544 93.056 176.384C93.056 176.213 93.0453 175.819 93.024 175.2C93.0027 174.144 92.752 173.376 92.272 172.896C91.792 172.405 91.008 172.16 89.92 172.16H87.568V180.64H90Z" fill="black"/>
<path d="M100.151 182.16C99.0526 182.16 98.1726 181.824 97.5112 181.152C96.8606 180.469 96.5033 179.541 96.4392 178.368L96.4233 177.824L96.4392 177.296C96.5139 176.144 96.8766 175.227 97.5273 174.544C98.1886 173.861 99.0579 173.52 100.135 173.52C101.319 173.52 102.237 173.899 102.887 174.656C103.538 175.403 103.863 176.416 103.863 177.696V177.968C103.863 178.075 103.826 178.165 103.751 178.24C103.687 178.304 103.602 178.336 103.495 178.336H97.9593V178.48C97.9913 179.173 98.1992 179.765 98.5833 180.256C98.9779 180.736 99.4953 180.976 100.135 180.976C100.626 180.976 101.026 180.88 101.335 180.688C101.655 180.485 101.89 180.277 102.039 180.064C102.135 179.936 102.205 179.861 102.247 179.84C102.301 179.808 102.391 179.792 102.519 179.792H103.303C103.399 179.792 103.479 179.819 103.543 179.872C103.607 179.925 103.639 180 103.639 180.096C103.639 180.331 103.49 180.613 103.191 180.944C102.903 181.275 102.493 181.563 101.959 181.808C101.437 182.043 100.834 182.16 100.151 182.16ZM102.343 177.232V177.184C102.343 176.448 102.141 175.851 101.735 175.392C101.341 174.923 100.807 174.688 100.135 174.688C99.4632 174.688 98.9299 174.923 98.5352 175.392C98.1512 175.851 97.9593 176.448 97.9593 177.184V177.232H102.343Z" fill="black"/>
<path d="M108.978 182C107.292 182 106.449 181.061 106.449 179.184V174.96H105.201C105.095 174.96 105.004 174.928 104.93 174.864C104.866 174.789 104.833 174.699 104.833 174.592V174.048C104.833 173.941 104.866 173.856 104.93 173.792C105.004 173.717 105.095 173.68 105.201 173.68H106.449V171.008C106.449 170.901 106.481 170.816 106.545 170.752C106.62 170.677 106.711 170.64 106.817 170.64H107.569C107.676 170.64 107.762 170.677 107.826 170.752C107.9 170.816 107.938 170.901 107.938 171.008V173.68H109.922C110.028 173.68 110.113 173.717 110.177 173.792C110.252 173.856 110.29 173.941 110.29 174.048V174.592C110.29 174.699 110.252 174.789 110.177 174.864C110.113 174.928 110.028 174.96 109.922 174.96H107.938V179.072C107.938 179.605 108.028 180.011 108.209 180.288C108.391 180.555 108.69 180.688 109.106 180.688H110.082C110.188 180.688 110.273 180.725 110.337 180.8C110.412 180.864 110.45 180.949 110.45 181.056V181.632C110.45 181.739 110.412 181.829 110.337 181.904C110.273 181.968 110.188 182 110.082 182H108.978Z" fill="black"/>
<path d="M115.308 182.16C114.209 182.16 113.329 181.824 112.667 181.152C112.017 180.469 111.659 179.541 111.595 178.368L111.58 177.824L111.595 177.296C111.67 176.144 112.033 175.227 112.684 174.544C113.345 173.861 114.214 173.52 115.292 173.52C116.476 173.52 117.393 173.899 118.043 174.656C118.694 175.403 119.02 176.416 119.02 177.696V177.968C119.02 178.075 118.982 178.165 118.908 178.24C118.844 178.304 118.758 178.336 118.652 178.336H113.115V178.48C113.147 179.173 113.355 179.765 113.74 180.256C114.134 180.736 114.652 180.976 115.292 180.976C115.782 180.976 116.182 180.88 116.492 180.688C116.812 180.485 117.046 180.277 117.195 180.064C117.291 179.936 117.361 179.861 117.403 179.84C117.457 179.808 117.548 179.792 117.676 179.792H118.459C118.555 179.792 118.636 179.819 118.7 179.872C118.764 179.925 118.796 180 118.796 180.096C118.796 180.331 118.646 180.613 118.347 180.944C118.059 181.275 117.649 181.563 117.115 181.808C116.593 182.043 115.99 182.16 115.308 182.16ZM117.5 177.232V177.184C117.5 176.448 117.297 175.851 116.892 175.392C116.497 174.923 115.964 174.688 115.292 174.688C114.619 174.688 114.086 174.923 113.691 175.392C113.307 175.851 113.115 176.448 113.115 177.184V177.232H117.5Z" fill="black"/>
<path d="M121.301 182C121.194 182 121.103 181.968 121.029 181.904C120.965 181.829 120.933 181.739 120.933 181.632V174.064C120.933 173.957 120.965 173.867 121.029 173.792C121.103 173.717 121.194 173.68 121.301 173.68H122.037C122.143 173.68 122.234 173.717 122.309 173.792C122.383 173.867 122.421 173.957 122.421 174.064V174.768C122.858 174.043 123.605 173.68 124.661 173.68H125.285C125.391 173.68 125.477 173.717 125.541 173.792C125.615 173.856 125.653 173.941 125.653 174.048V174.704C125.653 174.811 125.615 174.896 125.541 174.96C125.477 175.024 125.391 175.056 125.285 175.056H124.325C123.749 175.056 123.295 175.227 122.965 175.568C122.634 175.899 122.469 176.352 122.469 176.928V181.632C122.469 181.739 122.431 181.829 122.357 181.904C122.282 181.968 122.191 182 122.085 182H121.301Z" fill="black"/>
<path d="M127.379 182C127.272 182 127.181 181.968 127.107 181.904C127.043 181.829 127.011 181.739 127.011 181.632V174.048C127.011 173.941 127.043 173.856 127.107 173.792C127.181 173.717 127.272 173.68 127.379 173.68H128.099C128.205 173.68 128.291 173.717 128.355 173.792C128.429 173.856 128.467 173.941 128.467 174.048V174.608C129.021 173.883 129.795 173.52 130.787 173.52C131.971 173.52 132.808 174.011 133.299 174.992C133.555 174.544 133.917 174.187 134.387 173.92C134.856 173.653 135.384 173.52 135.971 173.52C136.845 173.52 137.56 173.819 138.115 174.416C138.669 175.013 138.947 175.877 138.947 177.008V181.632C138.947 181.739 138.909 181.829 138.835 181.904C138.771 181.968 138.685 182 138.579 182H137.827C137.72 182 137.629 181.968 137.555 181.904C137.491 181.829 137.459 181.739 137.459 181.632V177.152C137.459 176.32 137.283 175.723 136.931 175.36C136.589 174.997 136.136 174.816 135.571 174.816C135.069 174.816 134.637 175.003 134.275 175.376C133.912 175.739 133.731 176.331 133.731 177.152V181.632C133.731 181.739 133.693 181.829 133.619 181.904C133.555 181.968 133.469 182 133.363 182H132.611C132.504 182 132.413 181.968 132.339 181.904C132.275 181.829 132.243 181.739 132.243 181.632V177.152C132.243 176.32 132.061 175.723 131.699 175.36C131.347 174.997 130.899 174.816 130.355 174.816C129.853 174.816 129.421 175.003 129.059 175.376C128.696 175.739 128.515 176.325 128.515 177.136V181.632C128.515 181.739 128.477 181.829 128.403 181.904C128.339 181.968 128.253 182 128.147 182H127.379Z" fill="black"/>
<path d="M141.47 172.128C141.363 172.128 141.272 172.096 141.197 172.032C141.133 171.957 141.102 171.867 141.102 171.76V170.896C141.102 170.789 141.133 170.699 141.197 170.624C141.272 170.549 141.363 170.512 141.47 170.512H142.478C142.584 170.512 142.675 170.549 142.75 170.624C142.824 170.699 142.861 170.789 142.861 170.896V171.76C142.861 171.867 142.824 171.957 142.75 172.032C142.675 172.096 142.584 172.128 142.478 172.128H141.47ZM141.597 182C141.491 182 141.4 181.968 141.326 181.904C141.262 181.829 141.229 181.739 141.229 181.632V174.048C141.229 173.941 141.262 173.856 141.326 173.792C141.4 173.717 141.491 173.68 141.597 173.68H142.366C142.472 173.68 142.558 173.717 142.622 173.792C142.696 173.856 142.734 173.941 142.734 174.048V181.632C142.734 181.739 142.696 181.829 142.622 181.904C142.558 181.968 142.472 182 142.366 182H141.597Z" fill="black"/>
<path d="M145.472 182C145.366 182 145.275 181.968 145.201 181.904C145.137 181.829 145.104 181.739 145.104 181.632V174.048C145.104 173.941 145.137 173.856 145.201 173.792C145.275 173.717 145.366 173.68 145.472 173.68H146.224C146.331 173.68 146.416 173.717 146.48 173.792C146.555 173.856 146.592 173.941 146.592 174.048V174.752C146.902 174.357 147.264 174.053 147.681 173.84C148.107 173.627 148.635 173.52 149.264 173.52C150.288 173.52 151.083 173.851 151.648 174.512C152.224 175.163 152.512 176.032 152.512 177.12V181.632C152.512 181.739 152.475 181.829 152.4 181.904C152.336 181.968 152.251 182 152.145 182H151.344C151.238 182 151.147 181.968 151.073 181.904C151.009 181.829 150.977 181.739 150.977 181.632V177.2C150.977 176.443 150.79 175.856 150.417 175.44C150.054 175.024 149.526 174.816 148.833 174.816C148.161 174.816 147.627 175.029 147.233 175.456C146.838 175.872 146.64 176.453 146.64 177.2V181.632C146.64 181.739 146.603 181.829 146.528 181.904C146.464 181.968 146.379 182 146.272 182H145.472Z" fill="black"/>
<path d="M155.048 172.128C154.941 172.128 154.85 172.096 154.776 172.032C154.712 171.957 154.68 171.867 154.68 171.76V170.896C154.68 170.789 154.712 170.699 154.776 170.624C154.85 170.549 154.941 170.512 155.048 170.512H156.056C156.162 170.512 156.253 170.549 156.328 170.624C156.402 170.699 156.44 170.789 156.44 170.896V171.76C156.44 171.867 156.402 171.957 156.328 172.032C156.253 172.096 156.162 172.128 156.056 172.128H155.048ZM155.176 182C155.069 182 154.978 181.968 154.904 181.904C154.84 181.829 154.808 181.739 154.808 181.632V174.048C154.808 173.941 154.84 173.856 154.904 173.792C154.978 173.717 155.069 173.68 155.176 173.68H155.944C156.05 173.68 156.136 173.717 156.2 173.792C156.274 173.856 156.312 173.941 156.312 174.048V181.632C156.312 181.739 156.274 181.829 156.2 181.904C156.136 181.968 156.05 182 155.944 182H155.176Z" fill="black"/>
<path d="M161.563 182.16C160.816 182.16 160.187 182.043 159.675 181.808C159.173 181.563 158.795 181.285 158.539 180.976C158.293 180.667 158.171 180.411 158.171 180.208C158.171 180.101 158.208 180.021 158.283 179.968C158.368 179.904 158.453 179.872 158.539 179.872H159.259C159.365 179.872 159.461 179.925 159.547 180.032C159.803 180.331 160.08 180.565 160.379 180.736C160.677 180.907 161.077 180.992 161.579 180.992C162.133 180.992 162.581 180.885 162.923 180.672C163.275 180.448 163.451 180.144 163.451 179.76C163.451 179.504 163.376 179.296 163.227 179.136C163.088 178.965 162.843 178.821 162.491 178.704C162.149 178.576 161.637 178.437 160.955 178.288C160.027 178.085 159.365 177.792 158.971 177.408C158.587 177.024 158.395 176.528 158.395 175.92C158.395 175.515 158.512 175.131 158.747 174.768C158.992 174.395 159.344 174.096 159.803 173.872C160.272 173.637 160.832 173.52 161.483 173.52C162.165 173.52 162.747 173.632 163.227 173.856C163.707 174.08 164.064 174.347 164.299 174.656C164.544 174.955 164.667 175.205 164.667 175.408C164.667 175.504 164.629 175.584 164.555 175.648C164.491 175.712 164.411 175.744 164.315 175.744H163.643C163.515 175.744 163.408 175.691 163.323 175.584C163.152 175.381 163.003 175.227 162.875 175.12C162.757 175.003 162.581 174.901 162.347 174.816C162.123 174.731 161.835 174.688 161.483 174.688C160.971 174.688 160.576 174.8 160.299 175.024C160.021 175.237 159.883 175.52 159.883 175.872C159.883 176.096 159.941 176.288 160.059 176.448C160.176 176.597 160.4 176.736 160.731 176.864C161.072 176.992 161.563 177.125 162.203 177.264C163.216 177.477 163.931 177.787 164.347 178.192C164.773 178.587 164.987 179.093 164.987 179.712C164.987 180.171 164.853 180.587 164.587 180.96C164.32 181.333 163.925 181.627 163.403 181.84C162.891 182.053 162.277 182.16 161.563 182.16Z" fill="black"/>
<path d="M170.071 182C168.386 182 167.543 181.061 167.543 179.184V174.96H166.295C166.189 174.96 166.098 174.928 166.023 174.864C165.959 174.789 165.927 174.699 165.927 174.592V174.048C165.927 173.941 165.959 173.856 166.023 173.792C166.098 173.717 166.189 173.68 166.295 173.68H167.543V171.008C167.543 170.901 167.575 170.816 167.639 170.752C167.714 170.677 167.805 170.64 167.911 170.64H168.663C168.77 170.64 168.855 170.677 168.919 170.752C168.994 170.816 169.031 170.901 169.031 171.008V173.68H171.015C171.122 173.68 171.207 173.717 171.271 173.792C171.346 173.856 171.383 173.941 171.383 174.048V174.592C171.383 174.699 171.346 174.789 171.271 174.864C171.207 174.928 171.122 174.96 171.015 174.96H169.031V179.072C169.031 179.605 169.122 180.011 169.303 180.288C169.485 180.555 169.783 180.688 170.199 180.688H171.175C171.282 180.688 171.367 180.725 171.431 180.8C171.506 180.864 171.543 180.949 171.543 181.056V181.632C171.543 181.739 171.506 181.829 171.431 181.904C171.367 181.968 171.282 182 171.175 182H170.071Z" fill="black"/>
<path d="M173.313 172.128C173.207 172.128 173.116 172.096 173.041 172.032C172.977 171.957 172.945 171.867 172.945 171.76V170.896C172.945 170.789 172.977 170.699 173.041 170.624C173.116 170.549 173.207 170.512 173.313 170.512H174.321C174.428 170.512 174.519 170.549 174.593 170.624C174.668 170.699 174.705 170.789 174.705 170.896V171.76C174.705 171.867 174.668 171.957 174.593 172.032C174.519 172.096 174.428 172.128 174.321 172.128H173.313ZM173.441 182C173.335 182 173.244 181.968 173.169 181.904C173.105 181.829 173.073 181.739 173.073 181.632V174.048C173.073 173.941 173.105 173.856 173.169 173.792C173.244 173.717 173.335 173.68 173.441 173.68H174.209C174.316 173.68 174.401 173.717 174.465 173.792C174.54 173.856 174.577 173.941 174.577 174.048V181.632C174.577 181.739 174.54 181.829 174.465 181.904C174.401 181.968 174.316 182 174.209 182H173.441Z" fill="black"/>
<path d="M180.308 182.16C179.167 182.16 178.271 181.84 177.62 181.2C176.98 180.549 176.639 179.643 176.596 178.48L176.58 177.84L176.596 177.2C176.639 176.037 176.98 175.136 177.62 174.496C178.271 173.845 179.167 173.52 180.308 173.52C181.076 173.52 181.727 173.659 182.26 173.936C182.794 174.213 183.188 174.555 183.444 174.96C183.711 175.365 183.855 175.771 183.876 176.176C183.887 176.283 183.855 176.368 183.78 176.432C183.706 176.496 183.615 176.528 183.508 176.528H182.74C182.634 176.528 182.554 176.507 182.5 176.464C182.447 176.421 182.394 176.336 182.34 176.208C182.159 175.696 181.903 175.333 181.572 175.12C181.242 174.896 180.826 174.784 180.324 174.784C179.663 174.784 179.135 174.992 178.74 175.408C178.356 175.813 178.148 176.437 178.116 177.28L178.1 177.856L178.116 178.4C178.148 179.253 178.356 179.883 178.74 180.288C179.124 180.693 179.652 180.896 180.324 180.896C180.826 180.896 181.242 180.789 181.572 180.576C181.903 180.352 182.159 179.984 182.34 179.472C182.394 179.344 182.447 179.259 182.5 179.216C182.554 179.163 182.634 179.136 182.74 179.136H183.508C183.615 179.136 183.706 179.173 183.78 179.248C183.855 179.312 183.887 179.397 183.876 179.504C183.855 179.899 183.711 180.304 183.444 180.72C183.188 181.125 182.794 181.467 182.26 181.744C181.738 182.021 181.087 182.16 180.308 182.16Z" fill="black"/>
<path d="M193.506 182.16C192.621 182.16 191.853 182.021 191.202 181.744C190.562 181.467 190.072 181.104 189.73 180.656C189.389 180.197 189.208 179.707 189.186 179.184C189.186 179.099 189.218 179.024 189.282 178.96C189.357 178.885 189.442 178.848 189.538 178.848H190.354C190.557 178.848 190.696 178.955 190.77 179.168C190.866 179.616 191.138 180 191.586 180.32C192.045 180.64 192.685 180.8 193.506 180.8C194.392 180.8 195.058 180.645 195.506 180.336C195.954 180.016 196.178 179.573 196.178 179.008C196.178 178.645 196.066 178.352 195.842 178.128C195.629 177.904 195.309 177.707 194.882 177.536C194.456 177.365 193.816 177.152 192.962 176.896C192.13 176.661 191.469 176.411 190.978 176.144C190.488 175.877 190.12 175.547 189.874 175.152C189.629 174.757 189.506 174.261 189.506 173.664C189.506 173.088 189.661 172.571 189.97 172.112C190.29 171.653 190.744 171.296 191.33 171.04C191.917 170.773 192.616 170.64 193.426 170.64C194.258 170.64 194.973 170.789 195.57 171.088C196.168 171.376 196.621 171.744 196.93 172.192C197.24 172.64 197.405 173.088 197.426 173.536C197.426 173.621 197.394 173.696 197.33 173.76C197.277 173.824 197.197 173.856 197.09 173.856H196.242C196.018 173.856 195.88 173.755 195.826 173.552C195.762 173.104 195.512 172.736 195.074 172.448C194.637 172.149 194.088 172 193.426 172C192.701 172 192.13 172.139 191.714 172.416C191.298 172.693 191.09 173.104 191.09 173.648C191.09 174.011 191.186 174.309 191.378 174.544C191.581 174.779 191.885 174.987 192.29 175.168C192.696 175.339 193.288 175.536 194.066 175.76C194.973 176.005 195.688 176.261 196.21 176.528C196.733 176.784 197.122 177.109 197.378 177.504C197.634 177.888 197.762 178.379 197.762 178.976C197.762 179.968 197.378 180.747 196.61 181.312C195.842 181.877 194.808 182.16 193.506 182.16Z" fill="black"/>
<path d="M203.011 182.16C201.87 182.16 200.974 181.84 200.323 181.2C199.683 180.549 199.342 179.643 199.299 178.48L199.283 177.84L199.299 177.2C199.342 176.037 199.683 175.136 200.323 174.496C200.974 173.845 201.87 173.52 203.011 173.52C203.779 173.52 204.43 173.659 204.963 173.936C205.497 174.213 205.891 174.555 206.147 174.96C206.414 175.365 206.558 175.771 206.579 176.176C206.59 176.283 206.558 176.368 206.483 176.432C206.409 176.496 206.318 176.528 206.211 176.528H205.443C205.337 176.528 205.257 176.507 205.203 176.464C205.15 176.421 205.097 176.336 205.043 176.208C204.862 175.696 204.606 175.333 204.275 175.12C203.945 174.896 203.529 174.784 203.027 174.784C202.366 174.784 201.838 174.992 201.443 175.408C201.059 175.813 200.851 176.437 200.819 177.28L200.803 177.856L200.819 178.4C200.851 179.253 201.059 179.883 201.443 180.288C201.827 180.693 202.355 180.896 203.027 180.896C203.529 180.896 203.945 180.789 204.275 180.576C204.606 180.352 204.862 179.984 205.043 179.472C205.097 179.344 205.15 179.259 205.203 179.216C205.257 179.163 205.337 179.136 205.443 179.136H206.211C206.318 179.136 206.409 179.173 206.483 179.248C206.558 179.312 206.59 179.397 206.579 179.504C206.558 179.899 206.414 180.304 206.147 180.72C205.891 181.125 205.497 181.467 204.963 181.744C204.441 182.021 203.79 182.16 203.011 182.16Z" fill="black"/>
<path d="M208.864 182C208.757 182 208.666 181.968 208.591 181.904C208.527 181.829 208.495 181.739 208.495 181.632V171.008C208.495 170.901 208.527 170.816 208.591 170.752C208.666 170.677 208.757 170.64 208.864 170.64H209.663C209.77 170.64 209.856 170.677 209.92 170.752C209.994 170.816 210.032 170.901 210.032 171.008V174.736C210.341 174.341 210.703 174.043 211.119 173.84C211.535 173.627 212.053 173.52 212.672 173.52C213.696 173.52 214.49 173.851 215.055 174.512C215.631 175.163 215.919 176.032 215.919 177.12V181.632C215.919 181.739 215.882 181.829 215.807 181.904C215.743 181.968 215.658 182 215.551 182H214.751C214.645 182 214.554 181.968 214.48 181.904C214.416 181.829 214.383 181.739 214.383 181.632V177.2C214.383 176.443 214.197 175.856 213.824 175.44C213.461 175.024 212.933 174.816 212.24 174.816C211.568 174.816 211.029 175.029 210.623 175.456C210.229 175.872 210.032 176.453 210.032 177.2V181.632C210.032 181.739 209.994 181.829 209.92 181.904C209.856 181.968 209.77 182 209.663 182H208.864Z" fill="black"/>
<path d="M221.557 182.16C220.459 182.16 219.579 181.824 218.917 181.152C218.267 180.469 217.91 179.541 217.846 178.368L217.829 177.824L217.846 177.296C217.92 176.144 218.283 175.227 218.934 174.544C219.595 173.861 220.464 173.52 221.542 173.52C222.726 173.52 223.643 173.899 224.294 174.656C224.944 175.403 225.27 176.416 225.27 177.696V177.968C225.27 178.075 225.232 178.165 225.158 178.24C225.094 178.304 225.008 178.336 224.902 178.336H219.365V178.48C219.397 179.173 219.606 179.765 219.99 180.256C220.384 180.736 220.902 180.976 221.542 180.976C222.032 180.976 222.432 180.88 222.742 180.688C223.062 180.485 223.296 180.277 223.445 180.064C223.541 179.936 223.611 179.861 223.654 179.84C223.707 179.808 223.798 179.792 223.926 179.792H224.71C224.806 179.792 224.885 179.819 224.949 179.872C225.013 179.925 225.046 180 225.046 180.096C225.046 180.331 224.896 180.613 224.598 180.944C224.31 181.275 223.899 181.563 223.365 181.808C222.843 182.043 222.24 182.16 221.557 182.16ZM223.749 177.232V177.184C223.749 176.448 223.547 175.851 223.141 175.392C222.747 174.923 222.214 174.688 221.542 174.688C220.87 174.688 220.336 174.923 219.941 175.392C219.557 175.851 219.365 176.448 219.365 177.184V177.232H223.749Z" fill="black"/>
<path d="M230.223 182.16C229.113 182.16 228.276 181.797 227.711 181.072C227.145 180.347 226.847 179.429 226.815 178.32L226.799 177.84L226.815 177.36C226.847 176.261 227.145 175.349 227.711 174.624C228.276 173.888 229.113 173.52 230.223 173.52C231.321 173.52 232.185 173.909 232.815 174.688V171.008C232.815 170.901 232.847 170.816 232.911 170.752C232.985 170.677 233.076 170.64 233.183 170.64H233.951C234.057 170.64 234.143 170.677 234.207 170.752C234.281 170.816 234.319 170.901 234.319 171.008V181.632C234.319 181.739 234.281 181.829 234.207 181.904C234.143 181.968 234.057 182 233.951 182H233.231C233.124 182 233.033 181.968 232.959 181.904C232.895 181.829 232.863 181.739 232.863 181.632V180.96C232.244 181.76 231.364 182.16 230.223 182.16ZM230.559 180.864C231.295 180.864 231.844 180.624 232.207 180.144C232.58 179.653 232.783 179.072 232.815 178.4C232.825 178.283 232.831 178.08 232.831 177.792C232.831 177.493 232.825 177.285 232.815 177.168C232.793 176.539 232.591 175.989 232.207 175.52C231.823 175.051 231.273 174.816 230.559 174.816C229.801 174.816 229.247 175.051 228.895 175.52C228.553 175.989 228.367 176.608 228.335 177.376L228.319 177.84C228.319 179.856 229.065 180.864 230.559 180.864Z" fill="black"/>
<path d="M239.802 182.16C238.789 182.16 238.005 181.835 237.45 181.184C236.896 180.523 236.618 179.648 236.618 178.56V174.048C236.618 173.941 236.65 173.856 236.714 173.792C236.789 173.717 236.88 173.68 236.986 173.68H237.786C237.893 173.68 237.978 173.717 238.042 173.792C238.117 173.856 238.154 173.941 238.154 174.048V178.48C238.154 180.069 238.848 180.864 240.234 180.864C240.906 180.864 241.44 180.656 241.834 180.24C242.229 179.813 242.426 179.227 242.426 178.48V174.048C242.426 173.941 242.458 173.856 242.522 173.792C242.597 173.717 242.688 173.68 242.794 173.68H243.594C243.701 173.68 243.786 173.717 243.85 173.792C243.914 173.856 243.946 173.941 243.946 174.048V181.632C243.946 181.739 243.914 181.829 243.85 181.904C243.786 181.968 243.701 182 243.594 182H242.842C242.736 182 242.645 181.968 242.57 181.904C242.506 181.829 242.474 181.739 242.474 181.632V180.928C242.176 181.333 241.813 181.643 241.386 181.856C240.96 182.059 240.432 182.16 239.802 182.16Z" fill="black"/>
<path d="M246.707 182C246.601 182 246.51 181.968 246.435 181.904C246.371 181.829 246.339 181.739 246.339 181.632V171.008C246.339 170.901 246.371 170.816 246.435 170.752C246.51 170.677 246.601 170.64 246.707 170.64H247.459C247.566 170.64 247.651 170.677 247.715 170.752C247.79 170.816 247.827 170.901 247.827 171.008V181.632C247.827 181.739 247.79 181.829 247.715 181.904C247.651 181.968 247.566 182 247.459 182H246.707Z" fill="black"/>
<path d="M250.454 172.128C250.347 172.128 250.257 172.096 250.182 172.032C250.118 171.957 250.086 171.867 250.086 171.76V170.896C250.086 170.789 250.118 170.699 250.182 170.624C250.257 170.549 250.347 170.512 250.454 170.512H251.462C251.569 170.512 251.659 170.549 251.734 170.624C251.809 170.699 251.846 170.789 251.846 170.896V171.76C251.846 171.867 251.809 171.957 251.734 172.032C251.659 172.096 251.569 172.128 251.462 172.128H250.454ZM250.582 182C250.475 182 250.385 181.968 250.31 181.904C250.246 181.829 250.214 181.739 250.214 181.632V174.048C250.214 173.941 250.246 173.856 250.31 173.792C250.385 173.717 250.475 173.68 250.582 173.68H251.35C251.457 173.68 251.542 173.717 251.606 173.792C251.681 173.856 251.718 173.941 251.718 174.048V181.632C251.718 181.739 251.681 181.829 251.606 181.904C251.542 181.968 251.457 182 251.35 182H250.582Z" fill="black"/>
<path d="M254.457 182C254.35 182 254.26 181.968 254.185 181.904C254.121 181.829 254.089 181.739 254.089 181.632V174.048C254.089 173.941 254.121 173.856 254.185 173.792C254.26 173.717 254.35 173.68 254.457 173.68H255.209C255.316 173.68 255.401 173.717 255.465 173.792C255.54 173.856 255.577 173.941 255.577 174.048V174.752C255.886 174.357 256.249 174.053 256.665 173.84C257.092 173.627 257.62 173.52 258.249 173.52C259.273 173.52 260.068 173.851 260.633 174.512C261.209 175.163 261.497 176.032 261.497 177.12V181.632C261.497 181.739 261.46 181.829 261.385 181.904C261.321 181.968 261.236 182 261.129 182H260.329C260.222 182 260.132 181.968 260.057 181.904C259.993 181.829 259.961 181.739 259.961 181.632V177.2C259.961 176.443 259.774 175.856 259.401 175.44C259.038 175.024 258.51 174.816 257.817 174.816C257.145 174.816 256.612 175.029 256.217 175.456C255.822 175.872 255.625 176.453 255.625 177.2V181.632C255.625 181.739 255.588 181.829 255.513 181.904C255.449 181.968 255.364 182 255.257 182H254.457Z" fill="black"/>
<path d="M267.2 185.52C266.325 185.52 265.621 185.371 265.088 185.072C264.555 184.784 264.176 184.453 263.952 184.08C263.728 183.707 263.605 183.371 263.584 183.072C263.573 182.965 263.605 182.875 263.68 182.8C263.765 182.725 263.856 182.688 263.952 182.688H264.72C264.816 182.688 264.896 182.709 264.96 182.752C265.024 182.805 265.077 182.896 265.12 183.024C265.248 183.365 265.456 183.659 265.744 183.904C266.043 184.16 266.501 184.288 267.12 184.288C267.909 184.288 268.491 184.117 268.864 183.776C269.237 183.445 269.424 182.853 269.424 182V180.912C269.147 181.264 268.795 181.547 268.368 181.76C267.941 181.963 267.435 182.064 266.848 182.064C265.717 182.064 264.869 181.707 264.304 180.992C263.749 180.267 263.456 179.349 263.424 178.24L263.408 177.792L263.424 177.36C263.456 176.261 263.755 175.349 264.32 174.624C264.885 173.888 265.728 173.52 266.848 173.52C267.968 173.52 268.843 173.931 269.472 174.752V174.064C269.472 173.957 269.504 173.867 269.568 173.792C269.643 173.717 269.733 173.68 269.84 173.68H270.576C270.683 173.68 270.773 173.717 270.848 173.792C270.923 173.867 270.96 173.957 270.96 174.064V181.824C270.96 184.288 269.707 185.52 267.2 185.52ZM267.168 180.784C267.893 180.784 268.443 180.544 268.816 180.064C269.189 179.584 269.392 179.013 269.424 178.352C269.435 178.256 269.44 178.069 269.44 177.792C269.44 177.525 269.435 177.344 269.424 177.248C269.392 176.587 269.189 176.016 268.816 175.536C268.453 175.056 267.904 174.816 267.168 174.816C266.411 174.816 265.861 175.051 265.52 175.52C265.179 175.989 264.992 176.608 264.96 177.376L264.944 177.792L264.96 178.224C264.992 178.981 265.179 179.6 265.52 180.08C265.861 180.549 266.411 180.784 267.168 180.784Z" fill="black"/>
<path d="M279.878 182C279.772 182 279.681 181.968 279.607 181.904C279.543 181.829 279.51 181.739 279.51 181.632V172.224H276.439C276.332 172.224 276.241 172.192 276.167 172.128C276.103 172.053 276.07 171.963 276.07 171.856V171.184C276.07 171.077 276.103 170.987 276.167 170.912C276.241 170.837 276.332 170.8 276.439 170.8H284.15C284.268 170.8 284.359 170.837 284.423 170.912C284.497 170.976 284.535 171.067 284.535 171.184V171.856C284.535 171.963 284.497 172.053 284.423 172.128C284.348 172.192 284.257 172.224 284.15 172.224H281.094V181.632C281.094 181.739 281.057 181.829 280.982 181.904C280.908 181.968 280.817 182 280.71 182H279.878Z" fill="black"/>
<path d="M286.192 182C286.085 182 285.994 181.968 285.92 181.904C285.856 181.829 285.824 181.739 285.824 181.632V171.008C285.824 170.901 285.856 170.816 285.92 170.752C285.994 170.677 286.085 170.64 286.192 170.64H286.992C287.098 170.64 287.184 170.677 287.248 170.752C287.322 170.816 287.36 170.901 287.36 171.008V174.736C287.669 174.341 288.032 174.043 288.448 173.84C288.864 173.627 289.381 173.52 290 173.52C291.024 173.52 291.818 173.851 292.384 174.512C292.96 175.163 293.248 176.032 293.248 177.12V181.632C293.248 181.739 293.21 181.829 293.136 181.904C293.072 181.968 292.986 182 292.88 182H292.08C291.973 182 291.882 181.968 291.808 181.904C291.744 181.829 291.712 181.739 291.712 181.632V177.2C291.712 176.443 291.525 175.856 291.152 175.44C290.789 175.024 290.261 174.816 289.568 174.816C288.896 174.816 288.357 175.029 287.952 175.456C287.557 175.872 287.36 176.453 287.36 177.2V181.632C287.36 181.739 287.322 181.829 287.248 181.904C287.184 181.968 287.098 182 286.992 182H286.192Z" fill="black"/>
<path d="M298.886 182.16C297.787 182.16 296.907 181.824 296.246 181.152C295.595 180.469 295.238 179.541 295.174 178.368L295.158 177.824L295.174 177.296C295.248 176.144 295.611 175.227 296.262 174.544C296.923 173.861 297.792 173.52 298.87 173.52C300.054 173.52 300.971 173.899 301.622 174.656C302.272 175.403 302.598 176.416 302.598 177.696V177.968C302.598 178.075 302.56 178.165 302.486 178.24C302.422 178.304 302.336 178.336 302.23 178.336H296.694V178.48C296.726 179.173 296.934 179.765 297.318 180.256C297.712 180.736 298.23 180.976 298.87 180.976C299.36 180.976 299.76 180.88 300.07 180.688C300.39 180.485 300.624 180.277 300.774 180.064C300.87 179.936 300.939 179.861 300.982 179.84C301.035 179.808 301.126 179.792 301.254 179.792H302.038C302.134 179.792 302.214 179.819 302.278 179.872C302.342 179.925 302.374 180 302.374 180.096C302.374 180.331 302.224 180.613 301.926 180.944C301.638 181.275 301.227 181.563 300.694 181.808C300.171 182.043 299.568 182.16 298.886 182.16ZM301.078 177.232V177.184C301.078 176.448 300.875 175.851 300.47 175.392C300.075 174.923 299.542 174.688 298.87 174.688C298.198 174.688 297.664 174.923 297.27 175.392C296.886 175.851 296.694 176.448 296.694 177.184V177.232H301.078Z" fill="black"/>
<path d="M307.919 182.16C306.745 182.16 305.833 181.829 305.183 181.168C304.543 180.507 304.201 179.627 304.159 178.528L304.143 177.84L304.159 177.152C304.201 176.064 304.548 175.189 305.199 174.528C305.849 173.856 306.756 173.52 307.919 173.52C309.081 173.52 309.988 173.856 310.639 174.528C311.289 175.189 311.636 176.064 311.679 177.152C311.689 177.269 311.695 177.499 311.695 177.84C311.695 178.181 311.689 178.411 311.679 178.528C311.636 179.627 311.289 180.507 310.639 181.168C309.999 181.829 309.092 182.16 307.919 182.16ZM307.919 180.928C308.591 180.928 309.119 180.715 309.503 180.288C309.897 179.861 310.111 179.248 310.143 178.448C310.153 178.341 310.159 178.139 310.159 177.84C310.159 177.541 310.153 177.339 310.143 177.232C310.111 176.432 309.897 175.819 309.503 175.392C309.119 174.965 308.591 174.752 307.919 174.752C307.247 174.752 306.713 174.965 306.319 175.392C305.924 175.819 305.716 176.432 305.695 177.232L305.679 177.84L305.695 178.448C305.716 179.248 305.924 179.861 306.319 180.288C306.713 180.715 307.247 180.928 307.919 180.928Z" fill="black"/>
<path d="M314.066 182C313.96 182 313.869 181.968 313.794 181.904C313.73 181.829 313.698 181.739 313.698 181.632V174.064C313.698 173.957 313.73 173.867 313.794 173.792C313.869 173.717 313.96 173.68 314.066 173.68H314.802C314.909 173.68 315 173.717 315.074 173.792C315.149 173.867 315.186 173.957 315.186 174.064V174.768C315.624 174.043 316.37 173.68 317.426 173.68H318.05C318.157 173.68 318.242 173.717 318.306 173.792C318.381 173.856 318.418 173.941 318.418 174.048V174.704C318.418 174.811 318.381 174.896 318.306 174.96C318.242 175.024 318.157 175.056 318.05 175.056H317.09C316.514 175.056 316.061 175.227 315.73 175.568C315.4 175.899 315.234 176.352 315.234 176.928V181.632C315.234 181.739 315.197 181.829 315.122 181.904C315.048 181.968 314.957 182 314.85 182H314.066Z" fill="black"/>
<path d="M321.232 185.04C321.147 185.04 321.072 185.008 321.008 184.944C320.944 184.88 320.912 184.805 320.912 184.72C320.912 184.645 320.939 184.549 320.992 184.432L322.224 181.504L319.168 174.288C319.115 174.149 319.088 174.059 319.088 174.016C319.088 173.92 319.12 173.84 319.184 173.776C319.248 173.712 319.328 173.68 319.424 173.68H320.208C320.379 173.68 320.507 173.771 320.592 173.952L323.024 179.776L325.52 173.952C325.606 173.771 325.739 173.68 325.92 173.68H326.672C326.768 173.68 326.848 173.712 326.912 173.776C326.976 173.84 327.008 173.915 327.008 174C327.008 174.032 326.982 174.128 326.928 174.288L322.384 184.768C322.299 184.949 322.166 185.04 321.984 185.04H321.232Z" fill="black"/>
<path d="M332.68 182C332.574 182 332.483 181.968 332.408 181.904C332.344 181.829 332.312 181.739 332.312 181.632V171.184C332.312 171.067 332.344 170.976 332.408 170.912C332.483 170.837 332.574 170.8 332.68 170.8H339.208C339.326 170.8 339.416 170.837 339.48 170.912C339.555 170.976 339.592 171.067 339.592 171.184V171.824C339.592 171.931 339.555 172.021 339.48 172.096C339.416 172.16 339.326 172.192 339.208 172.192H333.865V175.92H338.889C339.006 175.92 339.097 175.957 339.161 176.032C339.235 176.096 339.273 176.187 339.273 176.304V176.944C339.273 177.051 339.235 177.141 339.161 177.216C339.086 177.28 338.995 177.312 338.889 177.312H333.865V181.632C333.865 181.739 333.827 181.829 333.753 181.904C333.678 181.968 333.587 182 333.48 182H332.68Z" fill="black"/>
<path d="M341.598 182C341.491 182 341.4 181.968 341.326 181.904C341.262 181.829 341.23 181.739 341.23 181.632V174.064C341.23 173.957 341.262 173.867 341.326 173.792C341.4 173.717 341.491 173.68 341.598 173.68H342.333C342.44 173.68 342.531 173.717 342.605 173.792C342.68 173.867 342.717 173.957 342.717 174.064V174.768C343.155 174.043 343.901 173.68 344.957 173.68H345.582C345.688 173.68 345.773 173.717 345.837 173.792C345.912 173.856 345.949 173.941 345.949 174.048V174.704C345.949 174.811 345.912 174.896 345.837 174.96C345.773 175.024 345.688 175.056 345.582 175.056H344.621C344.045 175.056 343.592 175.227 343.262 175.568C342.931 175.899 342.766 176.352 342.766 176.928V181.632C342.766 181.739 342.728 181.829 342.654 181.904C342.579 181.968 342.488 182 342.382 182H341.598Z" fill="black"/>
<path d="M349.503 182.16C348.98 182.16 348.495 182.053 348.047 181.84C347.599 181.627 347.241 181.339 346.975 180.976C346.719 180.603 346.591 180.192 346.591 179.744C346.591 179.04 346.879 178.464 347.455 178.016C348.041 177.557 348.831 177.259 349.823 177.12L352.207 176.784V176.32C352.207 175.232 351.583 174.688 350.335 174.688C349.865 174.688 349.481 174.789 349.183 174.992C348.884 175.184 348.66 175.413 348.511 175.68C348.479 175.776 348.436 175.845 348.383 175.888C348.34 175.931 348.276 175.952 348.191 175.952H347.503C347.407 175.952 347.321 175.92 347.247 175.856C347.183 175.781 347.151 175.696 347.151 175.6C347.161 175.344 347.279 175.056 347.503 174.736C347.737 174.405 348.095 174.123 348.575 173.888C349.055 173.643 349.647 173.52 350.351 173.52C351.545 173.52 352.404 173.803 352.927 174.368C353.449 174.923 353.711 175.616 353.711 176.448V181.632C353.711 181.739 353.673 181.829 353.599 181.904C353.535 181.968 353.449 182 353.343 182H352.607C352.5 182 352.409 181.968 352.335 181.904C352.271 181.829 352.239 181.739 352.239 181.632V180.944C352.004 181.285 351.663 181.573 351.215 181.808C350.767 182.043 350.196 182.16 349.503 182.16ZM349.839 180.96C350.532 180.96 351.097 180.736 351.535 180.288C351.983 179.829 352.207 179.173 352.207 178.32V177.872L350.351 178.144C349.593 178.251 349.023 178.432 348.639 178.688C348.255 178.933 348.063 179.248 348.063 179.632C348.063 180.059 348.239 180.389 348.591 180.624C348.943 180.848 349.359 180.96 349.839 180.96Z" fill="black"/>
<path d="M356.379 182C356.272 182 356.181 181.968 356.107 181.904C356.043 181.829 356.011 181.739 356.011 181.632V174.048C356.011 173.941 356.043 173.856 356.107 173.792C356.181 173.717 356.272 173.68 356.379 173.68H357.099C357.205 173.68 357.291 173.717 357.355 173.792C357.429 173.856 357.467 173.941 357.467 174.048V174.608C358.021 173.883 358.795 173.52 359.787 173.52C360.971 173.52 361.808 174.011 362.299 174.992C362.555 174.544 362.917 174.187 363.387 173.92C363.856 173.653 364.384 173.52 364.971 173.52C365.845 173.52 366.56 173.819 367.115 174.416C367.669 175.013 367.947 175.877 367.947 177.008V181.632C367.947 181.739 367.909 181.829 367.835 181.904C367.771 181.968 367.685 182 367.579 182H366.827C366.72 182 366.629 181.968 366.555 181.904C366.491 181.829 366.459 181.739 366.459 181.632V177.152C366.459 176.32 366.283 175.723 365.931 175.36C365.589 174.997 365.136 174.816 364.571 174.816C364.069 174.816 363.637 175.003 363.275 175.376C362.912 175.739 362.731 176.331 362.731 177.152V181.632C362.731 181.739 362.693 181.829 362.619 181.904C362.555 181.968 362.469 182 362.363 182H361.611C361.504 182 361.413 181.968 361.339 181.904C361.275 181.829 361.243 181.739 361.243 181.632V177.152C361.243 176.32 361.061 175.723 360.699 175.36C360.347 174.997 359.899 174.816 359.355 174.816C358.853 174.816 358.421 175.003 358.059 175.376C357.696 175.739 357.515 176.325 357.515 177.136V181.632C357.515 181.739 357.477 181.829 357.403 181.904C357.339 181.968 357.253 182 357.147 182H356.379Z" fill="black"/>
<path d="M373.557 182.16C372.459 182.16 371.579 181.824 370.918 181.152C370.267 180.469 369.909 179.541 369.845 178.368L369.829 177.824L369.845 177.296C369.92 176.144 370.283 175.227 370.934 174.544C371.595 173.861 372.464 173.52 373.542 173.52C374.726 173.52 375.643 173.899 376.293 174.656C376.944 175.403 377.27 176.416 377.27 177.696V177.968C377.27 178.075 377.232 178.165 377.158 178.24C377.094 178.304 377.008 178.336 376.901 178.336H371.366V178.48C371.398 179.173 371.606 179.765 371.99 180.256C372.384 180.736 372.902 180.976 373.542 180.976C374.032 180.976 374.432 180.88 374.741 180.688C375.061 180.485 375.296 180.277 375.445 180.064C375.541 179.936 375.611 179.861 375.654 179.84C375.707 179.808 375.798 179.792 375.926 179.792H376.71C376.806 179.792 376.885 179.819 376.949 179.872C377.013 179.925 377.046 180 377.046 180.096C377.046 180.331 376.896 180.613 376.598 180.944C376.31 181.275 375.899 181.563 375.366 181.808C374.843 182.043 374.24 182.16 373.557 182.16ZM375.75 177.232V177.184C375.75 176.448 375.547 175.851 375.142 175.392C374.747 174.923 374.214 174.688 373.542 174.688C372.87 174.688 372.336 174.923 371.941 175.392C371.557 175.851 371.366 176.448 371.366 177.184V177.232H375.75Z" fill="black"/>
<path d="M381.172 182C381.033 182 380.927 181.968 380.852 181.904C380.777 181.84 380.713 181.739 380.66 181.6L378.388 174.176L378.356 174.016C378.356 173.92 378.388 173.84 378.452 173.776C378.527 173.712 378.607 173.68 378.692 173.68H379.396C379.503 173.68 379.588 173.712 379.652 173.776C379.727 173.829 379.775 173.888 379.796 173.952L381.572 179.984L383.476 174.016C383.497 173.931 383.545 173.856 383.62 173.792C383.695 173.717 383.796 173.68 383.924 173.68H384.468C384.596 173.68 384.697 173.717 384.772 173.792C384.847 173.856 384.895 173.931 384.916 174.016L386.82 179.984L388.596 173.952C388.607 173.899 388.644 173.84 388.708 173.776C388.783 173.712 388.873 173.68 388.98 173.68H389.7C389.785 173.68 389.86 173.712 389.924 173.776C389.988 173.84 390.02 173.92 390.02 174.016L389.988 174.176L387.732 181.6C387.679 181.739 387.615 181.84 387.54 181.904C387.465 181.968 387.353 182 387.204 182H386.58C386.292 182 386.116 181.867 386.052 181.6L384.196 175.872L382.34 181.6C382.255 181.867 382.073 182 381.796 182H381.172Z" fill="black"/>
<path d="M394.981 182.16C393.808 182.16 392.896 181.829 392.245 181.168C391.605 180.507 391.264 179.627 391.221 178.528L391.205 177.84L391.221 177.152C391.264 176.064 391.611 175.189 392.261 174.528C392.912 173.856 393.819 173.52 394.981 173.52C396.144 173.52 397.051 173.856 397.701 174.528C398.352 175.189 398.699 176.064 398.741 177.152C398.752 177.269 398.757 177.499 398.757 177.84C398.757 178.181 398.752 178.411 398.741 178.528C398.699 179.627 398.352 180.507 397.701 181.168C397.061 181.829 396.155 182.16 394.981 182.16ZM394.981 180.928C395.653 180.928 396.181 180.715 396.565 180.288C396.96 179.861 397.173 179.248 397.205 178.448C397.216 178.341 397.221 178.139 397.221 177.84C397.221 177.541 397.216 177.339 397.205 177.232C397.173 176.432 396.96 175.819 396.565 175.392C396.181 174.965 395.653 174.752 394.981 174.752C394.309 174.752 393.776 174.965 393.381 175.392C392.987 175.819 392.779 176.432 392.757 177.232L392.741 177.84L392.757 178.448C392.779 179.248 392.987 179.861 393.381 180.288C393.776 180.715 394.309 180.928 394.981 180.928Z" fill="black"/>
<path d="M401.129 182C401.022 182 400.931 181.968 400.857 181.904C400.793 181.829 400.761 181.739 400.761 181.632V174.064C400.761 173.957 400.793 173.867 400.857 173.792C400.931 173.717 401.022 173.68 401.129 173.68H401.865C401.971 173.68 402.062 173.717 402.137 173.792C402.211 173.867 402.249 173.957 402.249 174.064V174.768C402.686 174.043 403.433 173.68 404.489 173.68H405.113C405.219 173.68 405.305 173.717 405.369 173.792C405.443 173.856 405.481 173.941 405.481 174.048V174.704C405.481 174.811 405.443 174.896 405.369 174.96C405.305 175.024 405.219 175.056 405.113 175.056H404.153C403.577 175.056 403.123 175.227 402.793 175.568C402.462 175.899 402.297 176.352 402.297 176.928V181.632C402.297 181.739 402.259 181.829 402.185 181.904C402.11 181.968 402.019 182 401.913 182H401.129Z" fill="black"/>
<path d="M407.223 182C407.116 182 407.026 181.968 406.951 181.904C406.887 181.829 406.855 181.739 406.855 181.632V171.008C406.855 170.901 406.887 170.816 406.951 170.752C407.026 170.677 407.116 170.64 407.223 170.64H407.975C408.082 170.64 408.167 170.677 408.231 170.752C408.306 170.816 408.343 170.901 408.343 171.008V176.576L411.495 173.952C411.527 173.931 411.58 173.888 411.655 173.824C411.73 173.771 411.799 173.733 411.863 173.712C411.938 173.691 412.028 173.68 412.135 173.68H412.983C413.079 173.68 413.159 173.712 413.223 173.776C413.287 173.84 413.319 173.92 413.319 174.016C413.319 174.133 413.255 174.235 413.127 174.32L409.431 177.392L413.527 181.376C413.655 181.483 413.719 181.579 413.719 181.664C413.719 181.76 413.687 181.84 413.623 181.904C413.559 181.968 413.479 182 413.383 182H412.551C412.391 182 412.274 181.984 412.199 181.952C412.135 181.92 412.039 181.845 411.911 181.728L408.343 178.32V181.632C408.343 181.739 408.306 181.829 408.231 181.904C408.167 181.968 408.082 182 407.975 182H407.223Z" fill="black"/>
</svg>
